<svg xmlns="http://www.w3.org/2000/svg" xmlns:xlink="http://www.w3.org/1999/xlink" width="500" zoomAndPan="magnify" viewBox="0 0 375 374.999991" height="500" preserveAspectRatio="xMidYMid meet" version="1.0"><defs><filter x="0%" y="0%" width="100%" height="100%" id="2ff13cbe2b"><feColorMatrix values="0 0 0 0 1 0 0 0 0 1 0 0 0 0 1 0 0 0 1 0" color-interpolation-filters="sRGB"/></filter><g/><mask id="17490fc948"><g filter="url(#2ff13cbe2b)"><rect x="-37.5" width="450" fill="#000000" y="-37.499999" height="449.999989" fill-opacity="0.51"/></g></mask><clipPath id="435c4b50c4"><path d="M 0.582031 0.957031 L 33.398438 0.957031 L 33.398438 31.601562 L 0.582031 31.601562 Z M 0.582031 0.957031 " clip-rule="nonzero"/></clipPath><clipPath id="209f727a66"><rect x="0" width="34" y="0" height="32"/></clipPath><clipPath id="b9accf99b8"><path d="M 90.125 112.601562 L 283 112.601562 L 283 140 L 90.125 140 Z M 90.125 112.601562 " clip-rule="nonzero"/></clipPath><clipPath id="a724077688"><path d="M 220 136 L 284.867188 136 L 284.867188 151.601562 L 220 151.601562 Z M 220 136 " clip-rule="nonzero"/></clipPath></defs><g fill="#ffffff" fill-opacity="1"><g transform="translate(115.077667, 273.321917)"><g><path d="M 9.796875 -7.578125 L 7.8125 0.078125 L 6.1875 0.078125 L 5.125 -4.15625 L 4.875 -5.78125 L 4.65625 -4.140625 L 3.5625 0.078125 L 2.046875 0.078125 L 0.03125 -7.578125 L 1.609375 -7.578125 L 2.546875 -3.125 L 2.8125 -1.28125 L 3.109375 -3.125 L 4.203125 -7.578125 L 5.625 -7.578125 L 6.78125 -3.125 L 7.09375 -1.359375 L 7.34375 -3.125 L 8.203125 -7.578125 Z M 9.796875 -7.578125 "/></g></g></g><g fill="#ffffff" fill-opacity="1"><g transform="translate(124.88639, 273.321917)"><g><path d="M 0.484375 -2.890625 C 0.484375 -3.492188 0.597656 -4.007812 0.828125 -4.4375 C 1.066406 -4.875 1.398438 -5.203125 1.828125 -5.421875 C 2.253906 -5.640625 2.742188 -5.75 3.296875 -5.75 C 3.921875 -5.75 4.4375 -5.613281 4.84375 -5.34375 C 5.25 -5.082031 5.539062 -4.726562 5.71875 -4.28125 C 5.90625 -3.84375 6 -3.347656 6 -2.796875 C 6 -2.179688 5.878906 -1.660156 5.640625 -1.234375 C 5.398438 -0.804688 5.066406 -0.476562 4.640625 -0.25 C 4.222656 -0.03125 3.738281 0.078125 3.1875 0.078125 C 2.5625 0.078125 2.046875 -0.0507812 1.640625 -0.3125 C 1.234375 -0.582031 0.9375 -0.9375 0.75 -1.375 C 0.570312 -1.820312 0.484375 -2.328125 0.484375 -2.890625 Z M 4.390625 -2.796875 C 4.390625 -3.328125 4.296875 -3.765625 4.109375 -4.109375 C 3.921875 -4.460938 3.632812 -4.640625 3.25 -4.640625 C 2.46875 -4.640625 2.078125 -4.066406 2.078125 -2.921875 C 2.078125 -2.566406 2.117188 -2.242188 2.203125 -1.953125 C 2.285156 -1.671875 2.410156 -1.441406 2.578125 -1.265625 C 2.753906 -1.097656 2.976562 -1.015625 3.25 -1.015625 C 4.007812 -1.015625 4.390625 -1.609375 4.390625 -2.796875 Z M 4.390625 -2.796875 "/></g></g></g><g fill="#ffffff" fill-opacity="1"><g transform="translate(131.359253, 273.321917)"><g><path d="M 3.84375 -5.765625 C 4.050781 -5.765625 4.195312 -5.742188 4.28125 -5.703125 L 4.28125 -4.203125 C 4.207031 -4.242188 4.117188 -4.273438 4.015625 -4.296875 C 3.921875 -4.328125 3.78125 -4.34375 3.59375 -4.34375 C 3.125 -4.34375 2.707031 -4.171875 2.34375 -3.828125 L 2.34375 0 L 0.78125 0 L 0.78125 -5.671875 L 2.15625 -5.671875 L 2.234375 -4.890625 C 2.316406 -5.035156 2.4375 -5.175781 2.59375 -5.3125 C 2.757812 -5.445312 2.953125 -5.554688 3.171875 -5.640625 C 3.390625 -5.722656 3.613281 -5.765625 3.84375 -5.765625 Z M 3.84375 -5.765625 "/></g></g></g><g fill="#ffffff" fill-opacity="1"><g transform="translate(135.96284, 273.321917)"><g><path d="M 2.96875 -2.359375 L 2.375 -1.703125 L 2.390625 -1.0625 L 2.390625 0 L 0.828125 0 L 0.828125 -8.265625 L 2.390625 -8.265625 L 2.390625 -4.859375 L 2.34375 -3.4375 L 4.25 -5.671875 L 6.015625 -5.671875 L 3.984375 -3.46875 L 6.203125 0 L 4.4375 0 Z M 2.96875 -2.359375 "/></g></g></g><g fill="#ffffff" fill-opacity="1"><g transform="translate(142.117528, 273.321917)"><g><path d="M 0.734375 -1.515625 C 0.796875 -1.460938 0.910156 -1.398438 1.078125 -1.328125 C 1.253906 -1.253906 1.457031 -1.191406 1.6875 -1.140625 C 1.914062 -1.085938 2.140625 -1.0625 2.359375 -1.0625 C 2.671875 -1.0625 2.894531 -1.097656 3.03125 -1.171875 C 3.175781 -1.242188 3.25 -1.363281 3.25 -1.53125 C 3.25 -1.695312 3.148438 -1.84375 2.953125 -1.96875 C 2.753906 -2.09375 2.441406 -2.226562 2.015625 -2.375 C 1.515625 -2.539062 1.148438 -2.765625 0.921875 -3.046875 C 0.703125 -3.335938 0.59375 -3.691406 0.59375 -4.109375 C 0.59375 -4.453125 0.6875 -4.75 0.875 -5 C 1.070312 -5.25 1.34375 -5.4375 1.6875 -5.5625 C 2.03125 -5.6875 2.425781 -5.75 2.875 -5.75 C 3.238281 -5.75 3.5625 -5.710938 3.84375 -5.640625 C 4.132812 -5.578125 4.347656 -5.503906 4.484375 -5.421875 L 4.3125 -4.234375 C 4.195312 -4.335938 4.015625 -4.425781 3.765625 -4.5 C 3.515625 -4.570312 3.269531 -4.609375 3.03125 -4.609375 C 2.695312 -4.609375 2.453125 -4.570312 2.296875 -4.5 C 2.148438 -4.4375 2.078125 -4.320312 2.078125 -4.15625 C 2.078125 -4.039062 2.109375 -3.941406 2.171875 -3.859375 C 2.242188 -3.773438 2.359375 -3.695312 2.515625 -3.625 C 2.671875 -3.550781 2.894531 -3.46875 3.1875 -3.375 C 3.570312 -3.238281 3.878906 -3.09375 4.109375 -2.9375 C 4.335938 -2.78125 4.503906 -2.597656 4.609375 -2.390625 C 4.722656 -2.179688 4.78125 -1.9375 4.78125 -1.65625 C 4.78125 -1.082031 4.582031 -0.648438 4.1875 -0.359375 C 3.789062 -0.0664062 3.242188 0.078125 2.546875 0.078125 C 2.285156 0.078125 2.019531 0.0546875 1.75 0.015625 C 1.488281 -0.0234375 1.253906 -0.078125 1.046875 -0.140625 C 0.835938 -0.210938 0.679688 -0.285156 0.578125 -0.359375 Z M 0.734375 -1.515625 "/></g></g></g><g fill="#ffffff" fill-opacity="1"><g transform="translate(147.327635, 273.321917)"><g><path d="M 4.03125 -5.765625 C 4.457031 -5.773438 4.804688 -5.707031 5.078125 -5.5625 C 5.359375 -5.414062 5.566406 -5.175781 5.703125 -4.84375 C 5.847656 -4.519531 5.921875 -4.082031 5.921875 -3.53125 L 5.921875 0 L 4.359375 0 L 4.359375 -3.21875 C 4.359375 -3.53125 4.332031 -3.773438 4.28125 -3.953125 C 4.226562 -4.128906 4.144531 -4.253906 4.03125 -4.328125 C 3.914062 -4.410156 3.757812 -4.453125 3.5625 -4.453125 C 3.394531 -4.453125 3.195312 -4.414062 2.96875 -4.34375 C 2.75 -4.28125 2.554688 -4.175781 2.390625 -4.03125 L 2.390625 0 L 0.828125 0 L 0.828125 -8.265625 L 2.390625 -8.265625 L 2.390625 -6.09375 L 2.296875 -5.078125 C 2.515625 -5.253906 2.785156 -5.410156 3.109375 -5.546875 C 3.429688 -5.679688 3.738281 -5.753906 4.03125 -5.765625 Z M 4.03125 -5.765625 "/></g></g></g><g fill="#ffffff" fill-opacity="1"><g transform="translate(154.0441, 273.321917)"><g><path d="M 0.484375 -2.890625 C 0.484375 -3.492188 0.597656 -4.007812 0.828125 -4.4375 C 1.066406 -4.875 1.398438 -5.203125 1.828125 -5.421875 C 2.253906 -5.640625 2.742188 -5.75 3.296875 -5.75 C 3.921875 -5.75 4.4375 -5.613281 4.84375 -5.34375 C 5.25 -5.082031 5.539062 -4.726562 5.71875 -4.28125 C 5.90625 -3.84375 6 -3.347656 6 -2.796875 C 6 -2.179688 5.878906 -1.660156 5.640625 -1.234375 C 5.398438 -0.804688 5.066406 -0.476562 4.640625 -0.25 C 4.222656 -0.03125 3.738281 0.078125 3.1875 0.078125 C 2.5625 0.078125 2.046875 -0.0507812 1.640625 -0.3125 C 1.234375 -0.582031 0.9375 -0.9375 0.75 -1.375 C 0.570312 -1.820312 0.484375 -2.328125 0.484375 -2.890625 Z M 4.390625 -2.796875 C 4.390625 -3.328125 4.296875 -3.765625 4.109375 -4.109375 C 3.921875 -4.460938 3.632812 -4.640625 3.25 -4.640625 C 2.46875 -4.640625 2.078125 -4.066406 2.078125 -2.921875 C 2.078125 -2.566406 2.117188 -2.242188 2.203125 -1.953125 C 2.285156 -1.671875 2.410156 -1.441406 2.578125 -1.265625 C 2.753906 -1.097656 2.976562 -1.015625 3.25 -1.015625 C 4.007812 -1.015625 4.390625 -1.609375 4.390625 -2.796875 Z M 4.390625 -2.796875 "/></g></g></g><g fill="#ffffff" fill-opacity="1"><g transform="translate(160.516962, 273.321917)"><g><path d="M 3.9375 -5.75 C 4.351562 -5.75 4.726562 -5.648438 5.0625 -5.453125 C 5.40625 -5.253906 5.675781 -4.953125 5.875 -4.546875 C 6.082031 -4.140625 6.1875 -3.640625 6.1875 -3.046875 C 6.1875 -2.421875 6.066406 -1.875 5.828125 -1.40625 C 5.585938 -0.9375 5.25 -0.570312 4.8125 -0.3125 C 4.375 -0.0507812 3.875 0.078125 3.3125 0.078125 C 2.96875 0.078125 2.65625 0.0234375 2.375 -0.078125 L 2.390625 0.6875 L 2.390625 2.515625 L 0.828125 2.515625 L 0.828125 -5.671875 L 2.28125 -5.671875 L 2.28125 -5.09375 C 2.46875 -5.28125 2.6875 -5.4375 2.9375 -5.5625 C 3.195312 -5.6875 3.53125 -5.75 3.9375 -5.75 Z M 4.5625 -2.953125 C 4.5625 -3.554688 4.46875 -3.976562 4.28125 -4.21875 C 4.09375 -4.46875 3.816406 -4.59375 3.453125 -4.59375 C 3.253906 -4.59375 3.054688 -4.554688 2.859375 -4.484375 C 2.671875 -4.421875 2.515625 -4.335938 2.390625 -4.234375 L 2.390625 -1.234375 C 2.484375 -1.148438 2.601562 -1.09375 2.75 -1.0625 C 2.894531 -1.03125 3.066406 -1.015625 3.265625 -1.015625 C 3.515625 -1.015625 3.738281 -1.085938 3.9375 -1.234375 C 4.132812 -1.390625 4.285156 -1.613281 4.390625 -1.90625 C 4.503906 -2.207031 4.5625 -2.554688 4.5625 -2.953125 Z M 4.5625 -2.953125 "/></g></g></g><g fill="#ffffff" fill-opacity="1"><g transform="translate(167.178741, 273.321917)"><g/></g></g><g fill="#ffffff" fill-opacity="1"><g transform="translate(170.504659, 273.321917)"><g><path d="M 4.90625 -1.609375 L 2.125 -1.609375 L 1.625 0 L -0.078125 0 L 2.71875 -7.65625 L 4.328125 -7.65625 L 7.140625 0 L 5.421875 0 Z M 4.546875 -2.734375 L 3.71875 -5.34375 L 3.515625 -6.125 L 3.296875 -5.34375 L 2.484375 -2.734375 Z M 4.546875 -2.734375 "/></g></g></g><g fill="#ffffff" fill-opacity="1"><g transform="translate(177.569127, 273.321917)"><g><path d="M 2.265625 -5.671875 L 2.296875 -5.0625 C 2.523438 -5.238281 2.8125 -5.394531 3.15625 -5.53125 C 3.5 -5.675781 3.832031 -5.753906 4.15625 -5.765625 C 4.5625 -5.773438 4.890625 -5.707031 5.140625 -5.5625 C 5.398438 -5.425781 5.59375 -5.191406 5.71875 -4.859375 C 5.851562 -4.535156 5.921875 -4.101562 5.921875 -3.5625 L 5.921875 0 L 4.375 0 L 4.375 -3.21875 C 4.375 -3.539062 4.347656 -3.789062 4.296875 -3.96875 C 4.242188 -4.144531 4.15625 -4.269531 4.03125 -4.34375 C 3.914062 -4.425781 3.75 -4.460938 3.53125 -4.453125 C 3.363281 -4.453125 3.175781 -4.414062 2.96875 -4.34375 C 2.757812 -4.269531 2.578125 -4.164062 2.421875 -4.03125 L 2.421875 0 L 0.859375 0 L 0.859375 -5.671875 Z M 2.265625 -5.671875 "/></g></g></g><g fill="#ffffff" fill-opacity="1"><g transform="translate(184.290563, 273.321917)"><g><path d="M 5.828125 -8.265625 L 5.828125 0.078125 L 4.765625 0.078125 C 4.640625 0.078125 4.546875 0.0546875 4.484375 0.015625 C 4.421875 -0.015625 4.390625 -0.0859375 4.390625 -0.203125 L 4.390625 -0.59375 C 4.210938 -0.40625 3.992188 -0.242188 3.734375 -0.109375 C 3.472656 0.015625 3.140625 0.078125 2.734375 0.078125 C 2.316406 0.078125 1.9375 -0.0195312 1.59375 -0.21875 C 1.25 -0.425781 0.972656 -0.734375 0.765625 -1.140625 C 0.566406 -1.554688 0.46875 -2.0625 0.46875 -2.65625 C 0.46875 -3.269531 0.585938 -3.8125 0.828125 -4.28125 C 1.066406 -4.75 1.40625 -5.109375 1.84375 -5.359375 C 2.28125 -5.617188 2.785156 -5.75 3.359375 -5.75 C 3.691406 -5.75 4 -5.695312 4.28125 -5.59375 L 4.265625 -6.09375 L 4.265625 -8.265625 Z M 2.09375 -2.734375 C 2.09375 -2.148438 2.1875 -1.734375 2.375 -1.484375 C 2.570312 -1.242188 2.847656 -1.125 3.203125 -1.125 C 3.410156 -1.125 3.609375 -1.148438 3.796875 -1.203125 C 3.984375 -1.265625 4.140625 -1.335938 4.265625 -1.421875 L 4.265625 -4.484375 C 4.179688 -4.546875 4.066406 -4.585938 3.921875 -4.609375 C 3.773438 -4.628906 3.601562 -4.640625 3.40625 -4.640625 C 3.144531 -4.640625 2.914062 -4.566406 2.71875 -4.421875 C 2.53125 -4.285156 2.378906 -4.070312 2.265625 -3.78125 C 2.148438 -3.5 2.09375 -3.148438 2.09375 -2.734375 Z M 2.09375 -2.734375 "/></g></g></g><g fill="#ffffff" fill-opacity="1"><g transform="translate(190.94737, 273.321917)"><g/></g></g><g fill="#ffffff" fill-opacity="1"><g transform="translate(194.273288, 273.321917)"><g><path d="M 3.375 -7.578125 L 4.390625 -3.59375 L 4.765625 -1.921875 L 5.0625 -3.59375 L 5.96875 -7.578125 L 8.125 -7.578125 L 9.03125 0 L 7.484375 0 L 7.109375 -4.0625 L 6.96875 -6.375 L 6.421875 -4.0625 L 5.328125 0.078125 L 4.078125 0.078125 L 2.875 -4.0625 L 2.3125 -6.375 L 2.140625 -4.0625 L 1.8125 0 L 0.34375 0 L 1.15625 -7.578125 Z M 3.375 -7.578125 "/></g></g></g><g fill="#ffffff" fill-opacity="1"><g transform="translate(203.649492, 273.321917)"><g><path d="M 0.484375 -2.890625 C 0.484375 -3.492188 0.597656 -4.007812 0.828125 -4.4375 C 1.066406 -4.875 1.398438 -5.203125 1.828125 -5.421875 C 2.253906 -5.640625 2.742188 -5.75 3.296875 -5.75 C 3.921875 -5.75 4.4375 -5.613281 4.84375 -5.34375 C 5.25 -5.082031 5.539062 -4.726562 5.71875 -4.28125 C 5.90625 -3.84375 6 -3.347656 6 -2.796875 C 6 -2.179688 5.878906 -1.660156 5.640625 -1.234375 C 5.398438 -0.804688 5.066406 -0.476562 4.640625 -0.25 C 4.222656 -0.03125 3.738281 0.078125 3.1875 0.078125 C 2.5625 0.078125 2.046875 -0.0507812 1.640625 -0.3125 C 1.234375 -0.582031 0.9375 -0.9375 0.75 -1.375 C 0.570312 -1.820312 0.484375 -2.328125 0.484375 -2.890625 Z M 4.390625 -2.796875 C 4.390625 -3.328125 4.296875 -3.765625 4.109375 -4.109375 C 3.921875 -4.460938 3.632812 -4.640625 3.25 -4.640625 C 2.46875 -4.640625 2.078125 -4.066406 2.078125 -2.921875 C 2.078125 -2.566406 2.117188 -2.242188 2.203125 -1.953125 C 2.285156 -1.671875 2.410156 -1.441406 2.578125 -1.265625 C 2.753906 -1.097656 2.976562 -1.015625 3.25 -1.015625 C 4.007812 -1.015625 4.390625 -1.609375 4.390625 -2.796875 Z M 4.390625 -2.796875 "/></g></g></g><g fill="#ffffff" fill-opacity="1"><g transform="translate(210.122355, 273.321917)"><g><path d="M 5.828125 -8.265625 L 5.828125 0.078125 L 4.765625 0.078125 C 4.640625 0.078125 4.546875 0.0546875 4.484375 0.015625 C 4.421875 -0.015625 4.390625 -0.0859375 4.390625 -0.203125 L 4.390625 -0.59375 C 4.210938 -0.40625 3.992188 -0.242188 3.734375 -0.109375 C 3.472656 0.015625 3.140625 0.078125 2.734375 0.078125 C 2.316406 0.078125 1.9375 -0.0195312 1.59375 -0.21875 C 1.25 -0.425781 0.972656 -0.734375 0.765625 -1.140625 C 0.566406 -1.554688 0.46875 -2.0625 0.46875 -2.65625 C 0.46875 -3.269531 0.585938 -3.8125 0.828125 -4.28125 C 1.066406 -4.75 1.40625 -5.109375 1.84375 -5.359375 C 2.28125 -5.617188 2.785156 -5.75 3.359375 -5.75 C 3.691406 -5.75 4 -5.695312 4.28125 -5.59375 L 4.265625 -6.09375 L 4.265625 -8.265625 Z M 2.09375 -2.734375 C 2.09375 -2.148438 2.1875 -1.734375 2.375 -1.484375 C 2.570312 -1.242188 2.847656 -1.125 3.203125 -1.125 C 3.410156 -1.125 3.609375 -1.148438 3.796875 -1.203125 C 3.984375 -1.265625 4.140625 -1.335938 4.265625 -1.421875 L 4.265625 -4.484375 C 4.179688 -4.546875 4.066406 -4.585938 3.921875 -4.609375 C 3.773438 -4.628906 3.601562 -4.640625 3.40625 -4.640625 C 3.144531 -4.640625 2.914062 -4.566406 2.71875 -4.421875 C 2.53125 -4.285156 2.378906 -4.070312 2.265625 -3.78125 C 2.148438 -3.5 2.09375 -3.148438 2.09375 -2.734375 Z M 2.09375 -2.734375 "/></g></g></g><g fill="#ffffff" fill-opacity="1"><g transform="translate(216.779162, 273.321917)"><g><path d="M 2.421875 -5.671875 L 2.421875 0 L 0.859375 0 L 0.859375 -5.671875 Z M 0.6875 -7.359375 C 0.6875 -7.515625 0.726562 -7.664062 0.8125 -7.8125 C 0.90625 -7.957031 1.03125 -8.070312 1.1875 -8.15625 C 1.34375 -8.238281 1.503906 -8.28125 1.671875 -8.28125 C 1.941406 -8.28125 2.15625 -8.203125 2.3125 -8.046875 C 2.476562 -7.890625 2.5625 -7.6875 2.5625 -7.4375 C 2.5625 -7.269531 2.515625 -7.113281 2.421875 -6.96875 C 2.335938 -6.820312 2.21875 -6.707031 2.0625 -6.625 C 1.914062 -6.539062 1.753906 -6.5 1.578125 -6.5 C 1.410156 -6.5 1.257812 -6.535156 1.125 -6.609375 C 0.988281 -6.679688 0.878906 -6.78125 0.796875 -6.90625 C 0.722656 -7.039062 0.6875 -7.191406 0.6875 -7.359375 Z M 0.6875 -7.359375 "/></g></g></g><g fill="#ffffff" fill-opacity="1"><g transform="translate(220.060336, 273.321917)"><g><path d="M 0.40625 -4.59375 L 0.40625 -5.5 L 1.171875 -5.671875 L 1.171875 -6.21875 C 1.171875 -6.738281 1.273438 -7.15625 1.484375 -7.46875 C 1.691406 -7.789062 1.953125 -8.019531 2.265625 -8.15625 C 2.585938 -8.300781 2.929688 -8.375 3.296875 -8.375 C 3.492188 -8.375 3.691406 -8.359375 3.890625 -8.328125 C 4.085938 -8.304688 4.222656 -8.285156 4.296875 -8.265625 L 4.296875 -7.15625 C 4.128906 -7.238281 3.875 -7.28125 3.53125 -7.28125 C 3.28125 -7.28125 3.082031 -7.191406 2.9375 -7.015625 C 2.800781 -6.835938 2.734375 -6.582031 2.734375 -6.25 L 2.734375 -5.671875 L 4.046875 -5.671875 L 4.046875 -4.59375 L 2.734375 -4.59375 L 2.734375 0 L 1.171875 0 L 1.171875 -4.59375 Z M 0.40625 -4.59375 "/></g></g></g><g fill="#ffffff" fill-opacity="1"><g transform="translate(224.325863, 273.321917)"><g><path d="M 2.421875 -5.671875 L 2.421875 0 L 0.859375 0 L 0.859375 -5.671875 Z M 0.6875 -7.359375 C 0.6875 -7.515625 0.726562 -7.664062 0.8125 -7.8125 C 0.90625 -7.957031 1.03125 -8.070312 1.1875 -8.15625 C 1.34375 -8.238281 1.503906 -8.28125 1.671875 -8.28125 C 1.941406 -8.28125 2.15625 -8.203125 2.3125 -8.046875 C 2.476562 -7.890625 2.5625 -7.6875 2.5625 -7.4375 C 2.5625 -7.269531 2.515625 -7.113281 2.421875 -6.96875 C 2.335938 -6.820312 2.21875 -6.707031 2.0625 -6.625 C 1.914062 -6.539062 1.753906 -6.5 1.578125 -6.5 C 1.410156 -6.5 1.257812 -6.535156 1.125 -6.609375 C 0.988281 -6.679688 0.878906 -6.78125 0.796875 -6.90625 C 0.722656 -7.039062 0.6875 -7.191406 0.6875 -7.359375 Z M 0.6875 -7.359375 "/></g></g></g><g fill="#ffffff" fill-opacity="1"><g transform="translate(227.607038, 273.321917)"><g><path d="M 3.296875 -5.75 C 3.640625 -5.75 3.945312 -5.71875 4.21875 -5.65625 C 4.488281 -5.601562 4.675781 -5.539062 4.78125 -5.46875 L 4.578125 -4.265625 C 4.441406 -4.335938 4.285156 -4.390625 4.109375 -4.421875 C 3.929688 -4.460938 3.71875 -4.484375 3.46875 -4.484375 C 3.226562 -4.484375 3 -4.429688 2.78125 -4.328125 C 2.5625 -4.222656 2.378906 -4.054688 2.234375 -3.828125 C 2.097656 -3.609375 2.023438 -3.316406 2.015625 -2.953125 C 2.003906 -2.566406 2.054688 -2.238281 2.171875 -1.96875 C 2.285156 -1.695312 2.445312 -1.492188 2.65625 -1.359375 C 2.875 -1.234375 3.125 -1.171875 3.40625 -1.171875 C 3.65625 -1.171875 3.890625 -1.191406 4.109375 -1.234375 C 4.335938 -1.273438 4.515625 -1.332031 4.640625 -1.40625 L 4.859375 -0.484375 C 4.679688 -0.316406 4.4375 -0.179688 4.125 -0.078125 C 3.8125 0.0234375 3.476562 0.078125 3.125 0.078125 C 2.550781 0.078125 2.0625 -0.0390625 1.65625 -0.28125 C 1.257812 -0.53125 0.960938 -0.867188 0.765625 -1.296875 C 0.566406 -1.722656 0.46875 -2.210938 0.46875 -2.765625 C 0.46875 -3.335938 0.570312 -3.847656 0.78125 -4.296875 C 0.988281 -4.742188 1.304688 -5.097656 1.734375 -5.359375 C 2.160156 -5.617188 2.679688 -5.75 3.296875 -5.75 Z M 3.296875 -5.75 "/></g></g></g><g fill="#ffffff" fill-opacity="1"><g transform="translate(232.817145, 273.321917)"><g><path d="M 3.015625 -5.78125 C 3.566406 -5.78125 4.003906 -5.71875 4.328125 -5.59375 C 4.660156 -5.476562 4.910156 -5.269531 5.078125 -4.96875 C 5.242188 -4.664062 5.328125 -4.242188 5.328125 -3.703125 L 5.328125 0.078125 L 4.421875 0.078125 C 4.265625 0.078125 4.148438 0.0664062 4.078125 0.046875 C 4.003906 0.0234375 3.941406 -0.0195312 3.890625 -0.09375 C 3.847656 -0.164062 3.828125 -0.28125 3.828125 -0.4375 L 3.828125 -0.484375 C 3.660156 -0.316406 3.453125 -0.179688 3.203125 -0.078125 C 2.953125 0.0234375 2.671875 0.078125 2.359375 0.078125 C 1.992188 0.078125 1.671875 0 1.390625 -0.15625 C 1.109375 -0.3125 0.890625 -0.53125 0.734375 -0.8125 C 0.578125 -1.09375 0.5 -1.410156 0.5 -1.765625 C 0.5 -2.097656 0.582031 -2.378906 0.75 -2.609375 C 0.925781 -2.847656 1.175781 -3.039062 1.5 -3.1875 C 1.988281 -3.40625 2.742188 -3.515625 3.765625 -3.515625 L 3.765625 -3.875 C 3.765625 -4.082031 3.738281 -4.234375 3.6875 -4.328125 C 3.632812 -4.429688 3.53125 -4.5 3.375 -4.53125 C 3.21875 -4.570312 2.972656 -4.59375 2.640625 -4.59375 C 2.484375 -4.59375 2.242188 -4.550781 1.921875 -4.46875 C 1.597656 -4.394531 1.316406 -4.300781 1.078125 -4.1875 L 0.734375 -5.1875 C 0.867188 -5.269531 1.0625 -5.359375 1.3125 -5.453125 C 1.570312 -5.546875 1.851562 -5.625 2.15625 -5.6875 C 2.457031 -5.75 2.742188 -5.78125 3.015625 -5.78125 Z M 2.890625 -0.96875 C 3.054688 -0.96875 3.226562 -1 3.40625 -1.0625 C 3.59375 -1.132812 3.710938 -1.207031 3.765625 -1.28125 L 3.765625 -2.640625 C 3.578125 -2.640625 3.363281 -2.617188 3.125 -2.578125 C 2.894531 -2.535156 2.722656 -2.488281 2.609375 -2.4375 C 2.453125 -2.375 2.328125 -2.296875 2.234375 -2.203125 C 2.148438 -2.109375 2.109375 -1.96875 2.109375 -1.78125 C 2.109375 -1.507812 2.179688 -1.304688 2.328125 -1.171875 C 2.472656 -1.035156 2.660156 -0.96875 2.890625 -0.96875 Z M 2.890625 -0.96875 "/></g></g></g><g fill="#ffffff" fill-opacity="1"><g transform="translate(238.897261, 273.321917)"><g><path d="M 1.046875 -4.59375 L 0.375 -4.59375 L 0.375 -5.4375 C 0.59375 -5.5 0.75 -5.546875 0.84375 -5.578125 C 0.9375 -5.617188 1.019531 -5.664062 1.09375 -5.71875 C 1.175781 -5.78125 1.238281 -5.863281 1.28125 -5.96875 C 1.351562 -6.132812 1.476562 -6.46875 1.65625 -6.96875 L 2.609375 -6.96875 L 2.609375 -5.671875 L 4.140625 -5.671875 L 4.140625 -4.59375 L 2.609375 -4.59375 L 2.609375 -2.3125 C 2.609375 -1.9375 2.625 -1.660156 2.65625 -1.484375 C 2.695312 -1.316406 2.757812 -1.207031 2.84375 -1.15625 C 2.9375 -1.113281 3.070312 -1.09375 3.25 -1.09375 C 3.382812 -1.09375 3.539062 -1.113281 3.71875 -1.15625 C 3.90625 -1.207031 4.039062 -1.265625 4.125 -1.328125 L 4.3125 -0.453125 C 4.15625 -0.316406 3.921875 -0.191406 3.609375 -0.078125 C 3.304688 0.0234375 2.972656 0.078125 2.609375 0.078125 C 2.234375 0.078125 1.929688 0.0195312 1.703125 -0.09375 C 1.472656 -0.21875 1.304688 -0.40625 1.203125 -0.65625 C 1.097656 -0.914062 1.046875 -1.257812 1.046875 -1.6875 Z M 1.046875 -4.59375 "/></g></g></g><g fill="#ffffff" fill-opacity="1"><g transform="translate(243.436219, 273.321917)"><g><path d="M 2.421875 -5.671875 L 2.421875 0 L 0.859375 0 L 0.859375 -5.671875 Z M 0.6875 -7.359375 C 0.6875 -7.515625 0.726562 -7.664062 0.8125 -7.8125 C 0.90625 -7.957031 1.03125 -8.070312 1.1875 -8.15625 C 1.34375 -8.238281 1.503906 -8.28125 1.671875 -8.28125 C 1.941406 -8.28125 2.15625 -8.203125 2.3125 -8.046875 C 2.476562 -7.890625 2.5625 -7.6875 2.5625 -7.4375 C 2.5625 -7.269531 2.515625 -7.113281 2.421875 -6.96875 C 2.335938 -6.820312 2.21875 -6.707031 2.0625 -6.625 C 1.914062 -6.539062 1.753906 -6.5 1.578125 -6.5 C 1.410156 -6.5 1.257812 -6.535156 1.125 -6.609375 C 0.988281 -6.679688 0.878906 -6.78125 0.796875 -6.90625 C 0.722656 -7.039062 0.6875 -7.191406 0.6875 -7.359375 Z M 0.6875 -7.359375 "/></g></g></g><g fill="#ffffff" fill-opacity="1"><g transform="translate(246.717393, 273.321917)"><g><path d="M 0.484375 -2.890625 C 0.484375 -3.492188 0.597656 -4.007812 0.828125 -4.4375 C 1.066406 -4.875 1.398438 -5.203125 1.828125 -5.421875 C 2.253906 -5.640625 2.742188 -5.75 3.296875 -5.75 C 3.921875 -5.75 4.4375 -5.613281 4.84375 -5.34375 C 5.25 -5.082031 5.539062 -4.726562 5.71875 -4.28125 C 5.90625 -3.84375 6 -3.347656 6 -2.796875 C 6 -2.179688 5.878906 -1.660156 5.640625 -1.234375 C 5.398438 -0.804688 5.066406 -0.476562 4.640625 -0.25 C 4.222656 -0.03125 3.738281 0.078125 3.1875 0.078125 C 2.5625 0.078125 2.046875 -0.0507812 1.640625 -0.3125 C 1.234375 -0.582031 0.9375 -0.9375 0.75 -1.375 C 0.570312 -1.820312 0.484375 -2.328125 0.484375 -2.890625 Z M 4.390625 -2.796875 C 4.390625 -3.328125 4.296875 -3.765625 4.109375 -4.109375 C 3.921875 -4.460938 3.632812 -4.640625 3.25 -4.640625 C 2.46875 -4.640625 2.078125 -4.066406 2.078125 -2.921875 C 2.078125 -2.566406 2.117188 -2.242188 2.203125 -1.953125 C 2.285156 -1.671875 2.410156 -1.441406 2.578125 -1.265625 C 2.753906 -1.097656 2.976562 -1.015625 3.25 -1.015625 C 4.007812 -1.015625 4.390625 -1.609375 4.390625 -2.796875 Z M 4.390625 -2.796875 "/></g></g></g><g fill="#ffffff" fill-opacity="1"><g transform="translate(253.190256, 273.321917)"><g><path d="M 2.265625 -5.671875 L 2.296875 -5.0625 C 2.523438 -5.238281 2.8125 -5.394531 3.15625 -5.53125 C 3.5 -5.675781 3.832031 -5.753906 4.15625 -5.765625 C 4.5625 -5.773438 4.890625 -5.707031 5.140625 -5.5625 C 5.398438 -5.425781 5.59375 -5.191406 5.71875 -4.859375 C 5.851562 -4.535156 5.921875 -4.101562 5.921875 -3.5625 L 5.921875 0 L 4.375 0 L 4.375 -3.21875 C 4.375 -3.539062 4.347656 -3.789062 4.296875 -3.96875 C 4.242188 -4.144531 4.15625 -4.269531 4.03125 -4.34375 C 3.914062 -4.425781 3.75 -4.460938 3.53125 -4.453125 C 3.363281 -4.453125 3.175781 -4.414062 2.96875 -4.34375 C 2.757812 -4.269531 2.578125 -4.164062 2.421875 -4.03125 L 2.421875 0 L 0.859375 0 L 0.859375 -5.671875 Z M 2.265625 -5.671875 "/></g></g></g><g mask="url(#17490fc948)"><g transform="matrix(1, 0, 0, 1, 185, 116)"><g clip-path="url(#209f727a66)"><g clip-path="url(#435c4b50c4)"><path fill="#a6a6a6" d="M 11.984375 11.910156 L 15.503906 15.425781 L 16.371094 14.558594 L 12.363281 10.550781 C 11.828125 10.652344 11.335938 10.910156 10.929688 11.316406 C 10.523438 11.722656 10.261719 12.214844 10.160156 12.75 L 14.171875 16.757812 L 15.039062 15.890625 L 11.523438 12.371094 C 11.390625 12.242188 11.390625 12.039062 11.523438 11.910156 C 11.652344 11.78125 11.855469 11.78125 11.984375 11.910156 Z M 19.84375 9.96875 C 19.929688 10.058594 20.03125 10.085938 20.148438 10.058594 C 21.246094 9.78125 22.476562 10.070312 23.332031 10.925781 C 24.199219 11.792969 24.488281 13.007812 24.199219 14.109375 C 24.171875 14.226562 24.199219 14.339844 24.285156 14.414062 L 25.125 15.253906 C 25.257812 15.382812 25.460938 15.382812 25.589844 15.253906 L 29.597656 11.242188 C 29.726562 11.113281 29.726562 10.910156 29.597656 10.78125 L 23.476562 4.660156 C 23.347656 4.527344 23.144531 4.527344 23.011719 4.660156 L 19.003906 8.683594 C 18.875 8.8125 18.875 9.015625 19.003906 9.144531 Z M 24.113281 8.886719 C 24.460938 8.539062 25.023438 8.539062 25.386719 8.886719 C 25.734375 9.230469 25.734375 9.796875 25.386719 10.160156 C 25.039062 10.503906 24.476562 10.503906 24.113281 10.160156 C 23.75 9.8125 23.75 9.230469 24.113281 8.886719 Z M 29.886719 10.503906 C 30.019531 10.636719 30.21875 10.636719 30.351562 10.503906 L 30.65625 10.203125 C 30.785156 10.070312 30.785156 9.867188 30.65625 9.738281 L 24.519531 3.601562 C 24.386719 3.472656 24.183594 3.472656 24.054688 3.601562 L 23.75 3.90625 C 23.621094 4.035156 23.621094 4.238281 23.75 4.371094 Z M 3.230469 10.203125 L 3.535156 10.503906 C 3.664062 10.636719 3.867188 10.636719 3.996094 10.503906 L 10.132812 4.371094 C 10.261719 4.238281 10.261719 4.035156 10.132812 3.90625 L 9.828125 3.601562 C 9.699219 3.472656 9.496094 3.472656 9.367188 3.601562 L 3.230469 9.753906 C 3.101562 9.867188 3.101562 10.070312 3.230469 10.203125 Z M 4.273438 11.257812 L 8.28125 15.265625 C 8.410156 15.398438 8.613281 15.398438 8.742188 15.265625 L 9.582031 14.425781 C 9.671875 14.339844 9.699219 14.238281 9.671875 14.125 C 9.394531 13.023438 9.683594 11.808594 10.539062 10.941406 C 11.40625 10.070312 12.621094 9.78125 13.722656 10.070312 C 13.839844 10.101562 13.953125 10.070312 14.027344 9.984375 L 14.867188 9.144531 C 14.996094 9.015625 14.996094 8.8125 14.867188 8.683594 L 10.871094 4.660156 C 10.742188 4.527344 10.539062 4.527344 10.40625 4.660156 L 4.273438 10.796875 C 4.15625 10.925781 4.15625 11.128906 4.273438 11.257812 Z M 8.496094 8.886719 C 8.84375 8.539062 9.410156 8.539062 9.769531 8.886719 C 10.117188 9.230469 10.117188 9.796875 9.769531 10.160156 C 9.425781 10.503906 8.84375 10.503906 8.496094 10.160156 C 8.152344 9.8125 8.152344 9.230469 8.496094 8.886719 Z M 25.558594 2.5625 C 25.429688 2.429688 25.226562 2.429688 25.097656 2.5625 L 24.792969 2.863281 C 24.664062 2.996094 24.664062 3.199219 24.792969 3.328125 L 30.929688 9.464844 C 31.058594 9.59375 31.261719 9.59375 31.394531 9.464844 L 31.695312 9.160156 C 31.828125 9.03125 31.828125 8.828125 31.695312 8.695312 Z M 30.8125 25.773438 L 30.855469 25.730469 C 30.988281 25.601562 30.988281 25.398438 30.855469 25.265625 L 25.257812 19.667969 C 25.125 19.535156 24.921875 19.535156 24.792969 19.667969 L 24.75 19.710938 L 24.460938 19.421875 C 24.429688 19.390625 24.375 19.390625 24.34375 19.421875 L 23.882812 19.882812 C 23.851562 19.914062 23.851562 19.96875 23.882812 20 L 24.171875 20.289062 L 24.128906 20.332031 C 23.578125 20.882812 22.695312 20.882812 22.144531 20.332031 L 19.699219 17.886719 L 18.832031 18.753906 L 21.421875 21.34375 C 21.550781 21.476562 21.550781 21.679688 21.421875 21.808594 C 21.292969 21.9375 21.089844 21.9375 20.957031 21.808594 L 18.382812 19.234375 L 17.515625 20.101562 L 19.960938 22.546875 C 20.507812 23.097656 20.507812 23.980469 19.960938 24.527344 L 19.917969 24.574219 L 19.625 24.285156 C 19.597656 24.253906 19.539062 24.253906 19.511719 24.285156 L 19.046875 24.746094 C 19.019531 24.773438 19.019531 24.832031 19.046875 24.863281 L 19.335938 25.152344 L 19.292969 25.195312 C 19.164062 25.324219 19.164062 25.527344 19.292969 25.65625 L 24.894531 31.257812 C 25.023438 31.390625 25.226562 31.390625 25.359375 31.257812 L 25.402344 31.214844 L 25.605469 31.417969 C 25.632812 31.445312 25.691406 31.445312 25.71875 31.417969 L 26.183594 30.953125 C 26.210938 30.925781 26.210938 30.867188 26.183594 30.839844 L 25.980469 30.636719 L 26.082031 30.535156 C 26.386719 30.230469 26.746094 30.070312 27.179688 30.042969 C 27.804688 30.015625 28.425781 29.753906 28.902344 29.277344 C 29.382812 28.796875 29.640625 28.191406 29.671875 27.554688 C 29.683594 27.121094 29.859375 26.757812 30.164062 26.453125 L 30.265625 26.351562 L 30.464844 26.554688 C 30.496094 26.585938 30.554688 26.585938 30.582031 26.554688 L 31.046875 26.09375 C 31.074219 26.0625 31.074219 26.003906 31.046875 25.976562 Z M 26.761719 27.148438 C 25.820312 28.089844 24.316406 28.089844 23.375 27.148438 C 22.433594 26.207031 22.433594 24.703125 23.375 23.761719 C 24.316406 22.820312 25.820312 22.820312 26.761719 23.761719 C 27.703125 24.703125 27.703125 26.222656 26.761719 27.148438 Z M 8.035156 1.824219 L 7.296875 1.085938 C 7.195312 0.984375 7.050781 0.96875 6.921875 1.027344 C 5.601562 1.691406 4.375 2.5625 3.273438 3.660156 C 2.171875 4.761719 1.304688 5.992188 0.640625 7.308594 C 0.582031 7.4375 0.597656 7.582031 0.695312 7.683594 L 1.433594 8.421875 C 1.566406 8.550781 1.769531 8.550781 1.898438 8.421875 L 8.035156 2.285156 C 8.152344 2.15625 8.152344 1.953125 8.035156 1.824219 Z M 33.230469 7.308594 C 32.578125 5.992188 31.695312 4.761719 30.597656 3.660156 C 29.496094 2.5625 28.265625 1.691406 26.949219 1.027344 C 26.820312 0.96875 26.675781 0.984375 26.574219 1.085938 L 25.835938 1.824219 C 25.707031 1.953125 25.707031 2.15625 25.835938 2.285156 L 31.972656 8.421875 C 32.101562 8.550781 32.304688 8.550781 32.433594 8.421875 L 33.171875 7.683594 C 33.273438 7.582031 33.289062 7.4375 33.230469 7.308594 Z M 9.078125 3.328125 C 9.207031 3.199219 9.207031 2.996094 9.078125 2.863281 L 8.773438 2.5625 C 8.640625 2.429688 8.441406 2.429688 8.308594 2.5625 L 2.171875 8.695312 C 2.042969 8.828125 2.042969 9.03125 2.171875 9.160156 L 2.476562 9.464844 C 2.609375 9.59375 2.808594 9.59375 2.941406 9.464844 Z M 14.375 24.269531 C 14.34375 24.238281 14.285156 24.238281 14.257812 24.269531 L 13.96875 24.558594 L 13.925781 24.515625 C 13.375 23.964844 13.375 23.082031 13.925781 22.53125 L 23.722656 12.734375 C 23.621094 12.199219 23.359375 11.707031 22.957031 11.300781 C 22.550781 10.898438 22.058594 10.636719 21.523438 10.535156 L 11.726562 20.332031 C 11.175781 20.882812 10.292969 20.882812 9.742188 20.332031 L 9.699219 20.289062 L 9.988281 20 C 10.015625 19.96875 10.015625 19.914062 9.988281 19.882812 L 9.523438 19.421875 C 9.496094 19.390625 9.4375 19.390625 9.410156 19.421875 L 9.121094 19.710938 L 9.078125 19.667969 C 8.945312 19.535156 8.742188 19.535156 8.613281 19.667969 L 3.011719 25.265625 C 2.882812 25.398438 2.882812 25.601562 3.011719 25.730469 L 3.054688 25.773438 L 2.855469 25.976562 C 2.824219 26.003906 2.824219 26.0625 2.855469 26.09375 L 3.316406 26.554688 C 3.34375 26.585938 3.402344 26.585938 3.433594 26.554688 L 3.636719 26.351562 L 3.738281 26.453125 C 4.039062 26.757812 4.199219 27.121094 4.226562 27.554688 C 4.257812 28.175781 4.519531 28.796875 4.996094 29.277344 C 5.472656 29.753906 6.082031 30.015625 6.71875 30.042969 C 7.152344 30.058594 7.511719 30.230469 7.816406 30.535156 L 7.917969 30.636719 L 7.714844 30.839844 C 7.6875 30.867188 7.6875 30.925781 7.714844 30.953125 L 8.179688 31.417969 C 8.207031 31.445312 8.265625 31.445312 8.296875 31.417969 L 8.496094 31.214844 L 8.542969 31.257812 C 8.671875 31.390625 8.875 31.390625 9.003906 31.257812 L 14.605469 25.65625 C 14.734375 25.527344 14.734375 25.324219 14.605469 25.195312 L 14.5625 25.152344 L 14.851562 24.863281 C 14.878906 24.832031 14.878906 24.773438 14.851562 24.746094 Z M 10.496094 27.148438 C 9.554688 28.089844 8.050781 28.089844 7.109375 27.148438 C 6.167969 26.207031 6.167969 24.703125 7.109375 23.761719 C 8.050781 22.820312 9.554688 22.820312 10.496094 23.761719 C 11.4375 24.703125 11.4375 26.222656 10.496094 27.148438 Z M 12.449219 21.824219 C 12.320312 21.691406 12.320312 21.488281 12.449219 21.359375 L 21.898438 11.910156 C 22.027344 11.78125 22.230469 11.78125 22.363281 11.910156 C 22.492188 12.039062 22.492188 12.242188 22.363281 12.371094 L 12.910156 21.824219 C 12.78125 21.9375 12.578125 21.9375 12.449219 21.824219 Z M 12.449219 21.824219 " fill-opacity="1" fill-rule="evenodd"/></g></g></g></g><g clip-path="url(#b9accf99b8)"><path fill="#545454" d="M 267.171875 132.296875 C 264.769531 131.84375 262.386719 131.25 260.046875 130.519531 C 257.707031 129.785156 255.390625 128.941406 253.105469 128.011719 C 250.816406 127.082031 248.542969 126.085938 246.269531 125.050781 L 239.382812 121.898438 C 237.058594 120.847656 234.691406 119.808594 232.253906 118.824219 C 231.640625 118.578125 231.035156 118.332031 230.410156 118.097656 L 229.480469 117.742188 L 228.542969 117.402344 C 227.917969 117.167969 227.273438 116.957031 226.640625 116.734375 C 226.320312 116.628906 225.996094 116.523438 225.675781 116.417969 C 225.351562 116.316406 225.035156 116.207031 224.707031 116.109375 C 224.050781 115.910156 223.402344 115.710938 222.738281 115.53125 C 222.40625 115.4375 222.074219 115.34375 221.742188 115.253906 L 220.734375 115.003906 C 220.066406 114.835938 219.398438 114.660156 218.714844 114.523438 L 217.699219 114.304688 C 217.359375 114.234375 217.019531 114.15625 216.675781 114.097656 L 214.621094 113.730469 L 212.550781 113.421875 C 212.378906 113.398438 212.207031 113.367188 212.03125 113.347656 L 211.511719 113.285156 L 210.472656 113.164062 C 210.125 113.125 209.78125 113.078125 209.429688 113.050781 L 208.386719 112.957031 C 205.601562 112.714844 202.808594 112.601562 200.023438 112.628906 C 197.242188 112.65625 194.46875 112.792969 191.726562 113.042969 C 186.234375 113.535156 180.867188 114.464844 175.644531 115.664062 C 170.429688 116.882812 165.359375 118.378906 160.449219 120.101562 C 157.996094 120.964844 155.570312 121.867188 153.199219 122.835938 C 150.820312 123.796875 148.476562 124.804688 146.179688 125.859375 C 151.101562 124.210938 156.066406 122.65625 161.117188 121.320312 C 166.160156 119.96875 171.285156 118.824219 176.457031 117.9375 C 179.046875 117.492188 181.652344 117.132812 184.261719 116.839844 C 185.566406 116.6875 186.875 116.574219 188.179688 116.460938 L 190.144531 116.328125 C 190.796875 116.285156 191.453125 116.261719 192.109375 116.226562 C 194.726562 116.121094 197.339844 116.09375 199.9375 116.183594 L 201.882812 116.273438 C 202.53125 116.3125 203.175781 116.367188 203.820312 116.410156 L 204.304688 116.445312 L 205.746094 116.585938 C 206.066406 116.621094 206.386719 116.644531 206.707031 116.683594 L 207.664062 116.804688 L 208.617188 116.921875 C 208.9375 116.960938 209.25 117.019531 209.566406 117.066406 L 210.511719 117.210938 L 210.984375 117.285156 C 211.140625 117.308594 211.296875 117.34375 211.453125 117.371094 L 213.320312 117.71875 L 215.167969 118.125 C 215.476562 118.1875 215.777344 118.269531 216.082031 118.347656 L 216.992188 118.574219 C 217.605469 118.71875 218.195312 118.898438 218.792969 119.066406 L 219.691406 119.320312 C 219.988281 119.410156 220.28125 119.507812 220.574219 119.597656 C 221.164062 119.78125 221.746094 119.984375 222.332031 120.179688 C 227 121.792969 231.460938 123.859375 235.933594 126.023438 C 240.414062 128.195312 244.917969 130.480469 249.75 132.539062 C 250.675781 132.933594 251.613281 133.316406 252.5625 133.6875 C 249.699219 133.910156 246.828125 134.074219 243.949219 134.195312 L 241.214844 134.296875 L 238.476562 134.363281 C 237.5625 134.390625 236.648438 134.390625 235.734375 134.402344 L 234.363281 134.417969 C 233.90625 134.421875 233.449219 134.417969 232.992188 134.417969 C 229.332031 134.433594 225.664062 134.359375 221.996094 134.25 C 218.324219 134.140625 214.652344 133.972656 210.976562 133.765625 C 207.300781 133.5625 203.621094 133.328125 199.9375 133.054688 C 192.574219 132.53125 185.203125 131.890625 177.808594 131.269531 C 170.417969 130.644531 163 130.023438 155.554688 129.519531 L 152.761719 129.335938 C 151.832031 129.273438 150.898438 129.214844 149.964844 129.160156 C 148.097656 129.050781 146.226562 128.953125 144.351562 128.867188 C 143.414062 128.824219 142.476562 128.792969 141.539062 128.753906 L 138.714844 128.664062 C 137.773438 128.648438 136.832031 128.625 135.890625 128.617188 L 134.476562 128.609375 C 134.003906 128.601562 133.535156 128.601562 133.0625 128.605469 C 132.117188 128.613281 131.175781 128.609375 130.230469 128.632812 L 128.8125 128.660156 C 128.34375 128.671875 127.871094 128.6875 127.398438 128.707031 L 125.980469 128.761719 L 124.566406 128.835938 C 123.625 128.878906 122.683594 128.949219 121.742188 129.015625 C 117.976562 129.289062 114.230469 129.746094 110.550781 130.390625 C 106.867188 131.046875 103.261719 131.914062 99.796875 133.019531 C 96.335938 134.121094 93.011719 135.449219 89.941406 137.039062 C 96.578125 134.484375 103.734375 132.886719 110.984375 132.09375 C 118.253906 131.285156 125.617188 131.269531 132.945312 131.601562 C 133.402344 131.621094 133.859375 131.644531 134.320312 131.671875 L 135.691406 131.75 C 136.609375 131.804688 137.527344 131.871094 138.441406 131.929688 L 141.191406 132.136719 C 142.105469 132.210938 143.023438 132.285156 143.9375 132.367188 C 145.773438 132.53125 147.605469 132.703125 149.4375 132.890625 C 151.273438 133.066406 153.109375 133.261719 154.945312 133.449219 C 162.289062 134.234375 169.632812 135.078125 177.003906 135.898438 C 191.734375 137.535156 206.589844 139.070312 221.660156 139.65625 C 229.191406 139.949219 236.769531 139.988281 244.351562 139.675781 C 248.140625 139.511719 251.933594 139.277344 255.710938 138.921875 C 259.488281 138.5625 263.253906 138.105469 266.996094 137.542969 L 282.613281 135.199219 Z M 267.171875 132.296875 " fill-opacity="1" fill-rule="nonzero"/></g><g clip-path="url(#a724077688)"><path fill="#5499d8" d="M 225.730469 148.277344 C 231.550781 149.550781 237.453125 150.488281 243.386719 151.03125 C 250.828125 151.714844 258.410156 151.8125 265.804688 150.617188 C 269.402344 150.035156 272.964844 149.136719 276.335938 147.742188 C 279.097656 146.597656 284.332031 144.738281 284.828125 141.296875 C 285.007812 140.082031 285.054688 138.238281 283.523438 137.289062 C 281.546875 136.0625 278.898438 137.296875 277.050781 138 C 274.84375 138.839844 272.667969 139.730469 270.285156 140.382812 C 267.308594 141.199219 264.230469 141.875 261.121094 142.476562 C 257.617188 143.15625 254.046875 143.765625 250.441406 144.222656 C 252.222656 144.515625 255.175781 144.917969 256.777344 145.117188 C 258.6875 145.355469 260.609375 145.5625 262.542969 145.730469 C 264.574219 145.90625 266.671875 146.039062 268.773438 146.105469 C 259.421875 147.984375 243.496094 149.628906 220.335938 146.96875 C 222.15625 147.4375 223.972656 147.894531 225.730469 148.277344 Z M 225.730469 148.277344 " fill-opacity="1" fill-rule="nonzero"/></g></svg>