<svg xmlns="http://www.w3.org/2000/svg" xmlns:xlink="http://www.w3.org/1999/xlink" width="500" zoomAndPan="magnify" viewBox="0 0 375 374.999991" height="500" preserveAspectRatio="xMidYMid meet" version="1.0"><defs><filter x="0%" y="0%" width="100%" height="100%" id="a11069aa07"><feColorMatrix values="0 0 0 0 1 0 0 0 0 1 0 0 0 0 1 0 0 0 1 0" color-interpolation-filters="sRGB"/></filter><g/><mask id="0b99873dcf"><g filter="url(#a11069aa07)"><rect x="-37.5" width="450" fill="#000000" y="-37.499999" height="449.999989" fill-opacity="0.51"/></g></mask><clipPath id="af1f9a6818"><path d="M 0.886719 0.328125 L 33.800781 0.328125 L 33.800781 31 L 0.886719 31 Z M 0.886719 0.328125 " clip-rule="nonzero"/></clipPath><clipPath id="7513b4d5ad"><rect x="0" width="34" y="0" height="32"/></clipPath><clipPath id="d3e299f076"><path d="M 98.429688 160.976562 L 291 160.976562 L 291 189 L 98.429688 189 Z M 98.429688 160.976562 " clip-rule="nonzero"/></clipPath><clipPath id="0760d68be5"><path d="M 228 185 L 293.171875 185 L 293.171875 199.976562 L 228 199.976562 Z M 228 185 " clip-rule="nonzero"/></clipPath></defs><g fill="#000000" fill-opacity="1"><g transform="translate(86.494668, 240.872123)"><g><path d="M 13.726562 -32.757812 L 12.582031 -27.453125 C 14.039062 -27.453125 15.289062 -27.402344 16.328125 -27.351562 L 6.8125 -8.734375 C 4.992188 -5.617188 4.523438 -5.304688 1.769531 -5.304688 L 0.625 0 L 13.78125 0 L 14.921875 -5.304688 C 13.414062 -5.304688 12.738281 -5.40625 12.738281 -6.082031 C 12.738281 -6.605469 13.15625 -7.488281 13.988281 -8.945312 L 14.921875 -10.917969 L 22.464844 -10.917969 L 22.566406 -8.890625 C 22.671875 -8.113281 22.773438 -7.539062 22.773438 -7.070312 C 22.773438 -5.511719 22.097656 -5.304688 20.070312 -5.304688 L 18.925781 0 L 33.433594 0 L 34.578125 -5.304688 C 31.824219 -5.304688 31.457031 -5.617188 30.992188 -8.734375 L 28.753906 -32.757812 Z M 21.527344 -24.28125 C 21.683594 -23.710938 21.734375 -22.984375 21.785156 -22.152344 L 22.203125 -15.390625 L 17.160156 -15.390625 Z M 21.527344 -24.28125 "/></g></g></g><g fill="#000000" fill-opacity="1"><g transform="translate(120.448084, 240.872123)"><g><path d="M 2.027344 0 L 15.234375 0 L 16.378906 -5.304688 C 14.664062 -5.304688 14.089844 -5.511719 14.089844 -6.550781 C 14.089844 -6.914062 14.144531 -7.382812 14.300781 -7.957031 L 17.835938 -24.804688 C 18.355469 -27.089844 18.769531 -27.453125 21.058594 -27.453125 L 22.203125 -32.757812 L 8.996094 -32.757812 L 7.851562 -27.453125 C 9.566406 -27.453125 10.140625 -27.246094 10.140625 -26.207031 C 10.140625 -25.84375 10.085938 -25.375 9.929688 -24.804688 L 6.394531 -7.957031 C 5.875 -5.667969 5.460938 -5.304688 3.171875 -5.304688 Z M 2.027344 0 "/></g></g></g><g fill="#000000" fill-opacity="1"><g transform="translate(137.658773, 240.872123)"><g><path d="M 7.902344 -32.757812 L 5.511719 -21.527344 L 10.398438 -21.527344 C 11.386719 -26.101562 11.90625 -26.570312 16.429688 -26.570312 L 12.480469 -7.957031 C 11.960938 -5.667969 11.542969 -5.304688 9.253906 -5.304688 L 8.113281 0 L 21.371094 0 L 22.515625 -5.304688 C 20.800781 -5.304688 20.226562 -5.511719 20.226562 -6.550781 C 20.226562 -6.914062 20.277344 -7.382812 20.433594 -7.957031 L 24.386719 -26.570312 C 27.558594 -26.570312 28.652344 -26.3125 28.652344 -24.542969 C 28.652344 -23.816406 28.441406 -22.878906 28.183594 -21.527344 L 33.070312 -21.527344 L 35.460938 -32.757812 Z M 7.902344 -32.757812 "/></g></g></g><g fill="#000000" fill-opacity="1"><g transform="translate(167.140537, 240.872123)"><g><path d="M 13.3125 -16.378906 C 14.976562 -24.230469 18.40625 -27.039062 24.179688 -27.039062 C 28.652344 -27.039062 31.042969 -25.375 31.042969 -20.851562 C 31.042969 -19.601562 30.835938 -18.09375 30.46875 -16.378906 C 28.753906 -8.421875 25.375 -5.71875 19.601562 -5.71875 C 15.132812 -5.71875 12.738281 -7.382812 12.738281 -11.90625 C 12.738281 -13.15625 12.949219 -14.664062 13.3125 -16.378906 Z M 4.941406 -16.378906 C 4.472656 -14.300781 4.265625 -12.425781 4.265625 -10.710938 C 4.265625 -3.066406 8.839844 0.46875 18.304688 0.46875 C 29.847656 0.46875 36.398438 -4.835938 38.84375 -16.378906 C 39.257812 -18.460938 39.519531 -20.332031 39.519531 -22.046875 C 39.519531 -29.691406 34.941406 -33.226562 25.480469 -33.226562 C 13.933594 -33.226562 7.382812 -27.921875 4.941406 -16.378906 Z M 4.941406 -16.378906 "/></g></g></g><g fill="#000000" fill-opacity="1"><g transform="translate(203.901738, 240.872123)"><g><path d="M 38.425781 -32.757812 L 9.152344 -32.757812 L 8.007812 -27.453125 C 9.671875 -27.453125 10.242188 -27.246094 10.242188 -26.257812 C 10.242188 -25.894531 10.191406 -25.425781 10.035156 -24.804688 L 6.5 -7.957031 C 5.980469 -5.667969 5.617188 -5.304688 3.328125 -5.304688 L 2.183594 0 L 15.390625 0 L 16.535156 -5.304688 C 14.820312 -5.304688 14.246094 -5.511719 14.246094 -6.550781 C 14.246094 -6.914062 14.300781 -7.382812 14.457031 -7.957031 L 15.339844 -12.117188 L 25.582031 -12.117188 L 26.882812 -18.460938 L 16.640625 -18.460938 L 18.355469 -26.414062 L 26.726562 -26.414062 C 30.054688 -26.414062 31.148438 -26.207031 31.148438 -24.4375 C 31.148438 -23.710938 30.992188 -22.773438 30.730469 -21.527344 L 36.035156 -21.527344 Z M 38.425781 -32.757812 "/></g></g></g><g fill="#000000" fill-opacity="1"><g transform="translate(236.451262, 240.872123)"><g><path d="M 2.027344 0 L 15.234375 0 L 16.378906 -5.304688 C 14.664062 -5.304688 14.089844 -5.511719 14.089844 -6.550781 C 14.089844 -6.914062 14.144531 -7.382812 14.300781 -7.957031 L 17.835938 -24.804688 C 18.355469 -27.089844 18.769531 -27.453125 21.058594 -27.453125 L 22.203125 -32.757812 L 8.996094 -32.757812 L 7.851562 -27.453125 C 9.566406 -27.453125 10.140625 -27.246094 10.140625 -26.207031 C 10.140625 -25.84375 10.085938 -25.375 9.929688 -24.804688 L 6.394531 -7.957031 C 5.875 -5.667969 5.460938 -5.304688 3.171875 -5.304688 Z M 2.027344 0 "/></g></g></g><g fill="#000000" fill-opacity="1"><g transform="translate(253.66195, 240.872123)"><g><path d="M 1.613281 0 L 14.457031 0 L 15.597656 -5.304688 C 14.039062 -5.304688 13.257812 -5.40625 13.257812 -5.980469 C 13.257812 -6.449219 13.933594 -7.332031 15.441406 -8.890625 L 18.042969 -11.960938 L 22.773438 0 L 34.164062 0 L 35.304688 -5.304688 C 30.417969 -5.304688 29.949219 -5.667969 28.597656 -8.683594 L 25.945312 -15.441406 L 33.539062 -24.230469 C 36.085938 -27.039062 36.660156 -27.453125 39.101562 -27.453125 L 40.246094 -32.757812 L 27.402344 -32.757812 L 26.257812 -27.453125 C 27.820312 -27.453125 28.597656 -27.351562 28.597656 -26.777344 C 28.597656 -26.3125 27.921875 -25.425781 26.414062 -23.867188 L 23.816406 -20.800781 L 19.136719 -32.757812 L 7.695312 -32.757812 L 6.550781 -27.453125 C 11.4375 -27.453125 11.960938 -27.089844 13.257812 -24.074219 L 15.910156 -17.316406 L 8.371094 -8.527344 C 5.824219 -5.71875 5.199219 -5.304688 2.757812 -5.304688 Z M 1.613281 0 "/></g></g></g><g fill="#000000" fill-opacity="1"><g transform="translate(49.978588, 256.343304)"><g><path d="M 0.539062 -0.386719 C 0.539062 -0.386719 1.328125 0.0976562 2.933594 0.0976562 C 4.777344 0.0976562 5.683594 -0.5625 5.910156 -1.617188 C 5.941406 -1.800781 5.964844 -1.960938 5.964844 -2.113281 C 5.964844 -2.773438 5.597656 -3.171875 4.832031 -3.441406 L 3.171875 -4.054688 C 2.695312 -4.238281 2.4375 -4.476562 2.4375 -4.886719 C 2.4375 -4.972656 2.449219 -5.058594 2.46875 -5.15625 C 2.621094 -5.867188 3.128906 -6.203125 4.183594 -6.203125 C 5.15625 -6.203125 5.75 -5.886719 5.75 -5.175781 C 5.75 -5.121094 5.738281 -5.070312 5.738281 -5.015625 L 6.382812 -5.015625 L 6.675781 -6.40625 C 6.675781 -6.40625 5.835938 -6.890625 4.421875 -6.890625 C 2.664062 -6.890625 1.789062 -6.308594 1.542969 -5.132812 C 1.511719 -4.972656 1.488281 -4.820312 1.488281 -4.679688 C 1.488281 -3.992188 1.910156 -3.589844 2.652344 -3.332031 L 4.292969 -2.730469 C 4.777344 -2.554688 5.015625 -2.320312 5.015625 -1.910156 C 5.015625 -1.824219 5.003906 -1.726562 4.984375 -1.617188 C 4.84375 -0.960938 4.28125 -0.59375 3.171875 -0.59375 C 1.953125 -0.59375 1.476562 -0.90625 1.476562 -1.648438 C 1.476562 -1.691406 1.476562 -1.738281 1.476562 -1.78125 L 0.832031 -1.78125 Z M 0.539062 -0.386719 "/></g></g></g><g fill="#000000" fill-opacity="1"><g transform="translate(61.356314, 256.343304)"><g><path d="M 7.613281 -6.792969 L 1.917969 -6.792969 L 1.78125 -6.148438 C 2.199219 -6.148438 2.339844 -6.113281 2.339844 -5.886719 C 2.339844 -5.800781 2.320312 -5.671875 2.285156 -5.511719 L 1.378906 -1.285156 C 1.261719 -0.699219 1.195312 -0.648438 0.613281 -0.648438 L 0.472656 0 L 6.167969 0 L 6.558594 -1.84375 L 5.910156 -1.84375 C 5.695312 -0.796875 5.609375 -0.734375 4.519531 -0.734375 L 2.179688 -0.734375 L 2.675781 -3.03125 L 5.328125 -3.03125 L 5.480469 -3.765625 L 2.824219 -3.765625 L 3.3125 -6.0625 L 5.652344 -6.0625 C 6.429688 -6.0625 6.675781 -6.027344 6.675781 -5.628906 C 6.675781 -5.480469 6.644531 -5.253906 6.578125 -4.949219 L 7.226562 -4.949219 Z M 7.613281 -6.792969 "/></g></g></g><g fill="#000000" fill-opacity="1"><g transform="translate(73.316236, 256.343304)"><g><path d="M 1.554688 -6.148438 C 1.972656 -6.148438 2.113281 -6.113281 2.113281 -5.886719 C 2.113281 -5.800781 2.09375 -5.671875 2.058594 -5.511719 L 1.359375 -2.234375 C 1.316406 -2.027344 1.292969 -1.832031 1.292969 -1.648438 C 1.292969 -0.527344 2.113281 0.0976562 3.539062 0.0976562 C 5.199219 0.0976562 6.382812 -0.753906 6.699219 -2.234375 L 7.398438 -5.511719 C 7.515625 -6.09375 7.582031 -6.148438 8.164062 -6.148438 L 8.304688 -6.792969 L 6.246094 -6.792969 L 6.105469 -6.148438 C 6.523438 -6.148438 6.664062 -6.113281 6.664062 -5.886719 C 6.664062 -5.800781 6.644531 -5.671875 6.609375 -5.511719 L 5.933594 -2.328125 C 5.707031 -1.261719 4.851562 -0.648438 3.773438 -0.648438 C 2.847656 -0.648438 2.265625 -1.101562 2.265625 -1.910156 C 2.265625 -2.039062 2.277344 -2.179688 2.308594 -2.328125 L 2.988281 -5.511719 C 3.105469 -6.09375 3.171875 -6.148438 3.753906 -6.148438 L 3.894531 -6.792969 L 1.691406 -6.792969 Z M 1.554688 -6.148438 "/></g></g></g><g fill="#000000" fill-opacity="1"><g transform="translate(85.804429, 256.343304)"><g/></g></g><g fill="#000000" fill-opacity="1"><g transform="translate(93.829198, 256.343304)"><g><path d="M 1.898438 -6.792969 L 1.757812 -6.148438 C 2.027344 -6.148438 2.242188 -6.136719 2.40625 -6.113281 L 1.371094 -1.285156 C 1.25 -0.699219 1.175781 -0.648438 0.59375 -0.648438 L 0.453125 0 L 2.503906 0 L 2.640625 -0.648438 C 2.222656 -0.648438 2.09375 -0.679688 2.09375 -0.894531 C 2.09375 -0.992188 2.113281 -1.109375 2.144531 -1.285156 L 2.988281 -5.230469 L 3.902344 0 L 4.679688 0 L 7.828125 -5.230469 L 6.988281 -1.285156 C 6.871094 -0.699219 6.804688 -0.648438 6.222656 -0.648438 L 6.082031 0 L 8.273438 0 L 8.414062 -0.648438 C 7.992188 -0.648438 7.851562 -0.679688 7.851562 -0.90625 C 7.851562 -0.992188 7.875 -1.121094 7.90625 -1.285156 L 8.8125 -5.511719 C 8.929688 -6.09375 8.996094 -6.148438 9.578125 -6.148438 L 9.71875 -6.792969 L 7.9375 -6.792969 L 4.691406 -1.457031 L 3.710938 -6.792969 Z M 1.898438 -6.792969 "/></g></g></g><g fill="#000000" fill-opacity="1"><g transform="translate(107.956138, 256.343304)"><g><path d="M 7.613281 -6.792969 L 1.917969 -6.792969 L 1.78125 -6.148438 C 2.199219 -6.148438 2.339844 -6.113281 2.339844 -5.886719 C 2.339844 -5.800781 2.320312 -5.671875 2.285156 -5.511719 L 1.378906 -1.285156 C 1.261719 -0.699219 1.195312 -0.648438 0.613281 -0.648438 L 0.472656 0 L 6.167969 0 L 6.558594 -1.84375 L 5.910156 -1.84375 C 5.695312 -0.796875 5.609375 -0.734375 4.519531 -0.734375 L 2.179688 -0.734375 L 2.675781 -3.03125 L 5.328125 -3.03125 L 5.480469 -3.765625 L 2.824219 -3.765625 L 3.3125 -6.0625 L 5.652344 -6.0625 C 6.429688 -6.0625 6.675781 -6.027344 6.675781 -5.628906 C 6.675781 -5.480469 6.644531 -5.253906 6.578125 -4.949219 L 7.226562 -4.949219 Z M 7.613281 -6.792969 "/></g></g></g><g fill="#000000" fill-opacity="1"><g transform="translate(119.91606, 256.343304)"><g><path d="M 1.175781 -3.398438 C 1.078125 -2.957031 1.035156 -2.566406 1.035156 -2.210938 C 1.035156 -0.65625 1.929688 0.0976562 3.667969 0.0976562 C 5.058594 0.0976562 6.0625 -0.335938 6.332031 -0.519531 L 6.621094 -1.855469 L 5.964844 -1.855469 C 5.738281 -0.992188 4.949219 -0.648438 3.785156 -0.648438 C 2.589844 -0.648438 1.972656 -1.1875 1.972656 -2.363281 C 1.972656 -2.664062 2.007812 -3.007812 2.09375 -3.398438 C 2.492188 -5.296875 3.460938 -6.148438 4.949219 -6.148438 C 6.019531 -6.148438 6.632812 -5.84375 6.632812 -5.15625 C 6.632812 -5.089844 6.621094 -5.015625 6.609375 -4.941406 L 7.269531 -4.941406 L 7.558594 -6.277344 C 7.355469 -6.460938 6.546875 -6.890625 5.15625 -6.890625 C 3.03125 -6.890625 1.683594 -5.757812 1.175781 -3.398438 Z M 1.175781 -3.398438 "/></g></g></g><g fill="#000000" fill-opacity="1"><g transform="translate(131.962225, 256.343304)"><g><path d="M 3.625 -7.992188 L 3.871094 -7.515625 L 5.1875 -8.316406 L 6.160156 -7.515625 L 6.621094 -7.992188 L 5.488281 -8.917969 L 5.144531 -8.917969 Z M 3.429688 -6.792969 L 3.289062 -6.148438 C 3.589844 -6.148438 3.828125 -6.136719 4.011719 -6.113281 L 1.378906 -1.292969 C 1.023438 -0.699219 0.949219 -0.648438 0.3125 -0.648438 L 0.171875 0 L 2.425781 0 L 2.566406 -0.648438 C 2.179688 -0.648438 2.007812 -0.667969 2.007812 -0.820312 C 2.007812 -0.917969 2.082031 -1.078125 2.222656 -1.316406 L 2.738281 -2.277344 L 5.046875 -2.277344 L 5.15625 -1.316406 C 5.175781 -1.1875 5.1875 -1.078125 5.1875 -0.992188 C 5.1875 -0.691406 5.027344 -0.648438 4.53125 -0.648438 L 4.390625 0 L 6.785156 0 L 6.925781 -0.648438 C 6.289062 -0.648438 6.222656 -0.699219 6.125 -1.292969 L 5.457031 -6.792969 Z M 4.617188 -5.75 C 4.660156 -5.628906 4.691406 -5.488281 4.714844 -5.304688 L 4.972656 -2.910156 L 3.085938 -2.910156 Z M 4.617188 -5.75 "/></g></g></g><g fill="#000000" fill-opacity="1"><g transform="translate(144.299481, 256.343304)"><g><path d="M 1.769531 -6.148438 C 2.058594 -6.148438 2.253906 -6.136719 2.394531 -6.09375 L 1.371094 -1.285156 C 1.25 -0.699219 1.1875 -0.648438 0.605469 -0.648438 L 0.464844 0 L 2.546875 0 L 2.683594 -0.648438 C 2.265625 -0.648438 2.125 -0.679688 2.125 -0.90625 C 2.125 -0.992188 2.144531 -1.121094 2.179688 -1.285156 L 3.042969 -5.316406 L 5.652344 0 L 6.523438 0 L 7.699219 -5.511719 C 7.820312 -6.09375 7.882812 -6.148438 8.464844 -6.148438 L 8.605469 -6.792969 L 6.523438 -6.792969 L 6.382812 -6.148438 C 6.804688 -6.148438 6.945312 -6.113281 6.945312 -5.886719 C 6.945312 -5.800781 6.925781 -5.671875 6.890625 -5.511719 L 6.039062 -1.53125 L 3.417969 -6.792969 L 1.910156 -6.792969 Z M 1.769531 -6.148438 "/></g></g></g><g fill="#000000" fill-opacity="1"><g transform="translate(157.121899, 256.343304)"><g><path d="M 0.464844 0 L 2.664062 0 L 2.804688 -0.648438 C 2.382812 -0.648438 2.234375 -0.679688 2.234375 -0.917969 C 2.234375 -1.003906 2.253906 -1.121094 2.285156 -1.285156 L 3.191406 -5.511719 C 3.3125 -6.09375 3.386719 -6.148438 3.96875 -6.148438 L 4.109375 -6.792969 L 1.910156 -6.792969 L 1.769531 -6.148438 C 2.1875 -6.148438 2.328125 -6.113281 2.328125 -5.886719 C 2.328125 -5.800781 2.308594 -5.671875 2.277344 -5.511719 L 1.371094 -1.285156 C 1.25 -0.699219 1.1875 -0.648438 0.605469 -0.648438 Z M 0.464844 0 "/></g></g></g><g fill="#000000" fill-opacity="1"><g transform="translate(165.631828, 256.343304)"><g><path d="M 1.175781 -3.398438 C 1.078125 -2.957031 1.035156 -2.566406 1.035156 -2.210938 C 1.035156 -0.65625 1.929688 0.0976562 3.667969 0.0976562 C 5.058594 0.0976562 6.0625 -0.335938 6.332031 -0.519531 L 6.621094 -1.855469 L 5.964844 -1.855469 C 5.738281 -0.992188 4.949219 -0.648438 3.785156 -0.648438 C 2.589844 -0.648438 1.972656 -1.1875 1.972656 -2.363281 C 1.972656 -2.664062 2.007812 -3.007812 2.09375 -3.398438 C 2.492188 -5.296875 3.460938 -6.148438 4.949219 -6.148438 C 6.019531 -6.148438 6.632812 -5.84375 6.632812 -5.15625 C 6.632812 -5.089844 6.621094 -5.015625 6.609375 -4.941406 L 7.269531 -4.941406 L 7.558594 -6.277344 C 7.355469 -6.460938 6.546875 -6.890625 5.15625 -6.890625 C 3.03125 -6.890625 1.683594 -5.757812 1.175781 -3.398438 Z M 1.175781 -3.398438 "/></g></g></g><g fill="#000000" fill-opacity="1"><g transform="translate(177.677993, 256.343304)"><g><path d="M 2.144531 -3.398438 C 2.566406 -5.382812 3.503906 -6.148438 4.949219 -6.148438 C 6.09375 -6.148438 6.71875 -5.664062 6.71875 -4.476562 C 6.71875 -4.171875 6.675781 -3.808594 6.589844 -3.398438 C 6.167969 -1.414062 5.230469 -0.648438 3.785156 -0.648438 C 2.640625 -0.648438 2.015625 -1.132812 2.015625 -2.320312 C 2.015625 -2.621094 2.058594 -2.988281 2.144531 -3.398438 Z M 1.175781 -3.398438 C 1.078125 -2.945312 1.035156 -2.546875 1.035156 -2.179688 C 1.035156 -0.625 1.917969 0.0976562 3.625 0.0976562 C 5.714844 0.0976562 7.054688 -0.992188 7.558594 -3.398438 C 7.65625 -3.851562 7.699219 -4.261719 7.699219 -4.617188 C 7.699219 -6.179688 6.804688 -6.890625 5.113281 -6.890625 C 3.019531 -6.890625 1.691406 -5.8125 1.175781 -3.398438 Z M 1.175781 -3.398438 "/></g></g></g><g fill="#000000" fill-opacity="1"><g transform="translate(190.349474, 256.343304)"><g/></g></g><g fill="#000000" fill-opacity="1"><g transform="translate(198.374242, 256.343304)"><g><path d="M 0.464844 0 L 2.664062 0 L 2.804688 -0.648438 C 2.382812 -0.648438 2.234375 -0.679688 2.234375 -0.917969 C 2.234375 -1.003906 2.253906 -1.121094 2.285156 -1.285156 L 3.191406 -5.511719 C 3.3125 -6.09375 3.386719 -6.148438 3.96875 -6.148438 L 4.109375 -6.792969 L 1.910156 -6.792969 L 1.769531 -6.148438 C 2.1875 -6.148438 2.328125 -6.113281 2.328125 -5.886719 C 2.328125 -5.800781 2.308594 -5.671875 2.277344 -5.511719 L 1.371094 -1.285156 C 1.25 -0.699219 1.1875 -0.648438 0.605469 -0.648438 Z M 0.464844 0 "/></g></g></g><g fill="#000000" fill-opacity="1"><g transform="translate(206.884171, 256.343304)"><g><path d="M 1.769531 -6.148438 C 2.058594 -6.148438 2.253906 -6.136719 2.394531 -6.09375 L 1.371094 -1.285156 C 1.25 -0.699219 1.1875 -0.648438 0.605469 -0.648438 L 0.464844 0 L 2.546875 0 L 2.683594 -0.648438 C 2.265625 -0.648438 2.125 -0.679688 2.125 -0.90625 C 2.125 -0.992188 2.144531 -1.121094 2.179688 -1.285156 L 3.042969 -5.316406 L 5.652344 0 L 6.523438 0 L 7.699219 -5.511719 C 7.820312 -6.09375 7.882812 -6.148438 8.464844 -6.148438 L 8.605469 -6.792969 L 6.523438 -6.792969 L 6.382812 -6.148438 C 6.804688 -6.148438 6.945312 -6.113281 6.945312 -5.886719 C 6.945312 -5.800781 6.925781 -5.671875 6.890625 -5.511719 L 6.039062 -1.53125 L 3.417969 -6.792969 L 1.910156 -6.792969 Z M 1.769531 -6.148438 "/></g></g></g><g fill="#000000" fill-opacity="1"><g transform="translate(219.706589, 256.343304)"><g><path d="M 1.691406 -6.792969 L 1.292969 -4.894531 L 1.898438 -4.894531 C 2.125 -5.984375 2.199219 -6.050781 3.289062 -6.050781 L 3.730469 -6.050781 L 2.71875 -1.285156 C 2.597656 -0.699219 2.535156 -0.648438 1.953125 -0.648438 L 1.8125 0 L 4.011719 0 L 4.152344 -0.648438 C 3.730469 -0.648438 3.589844 -0.679688 3.589844 -0.90625 C 3.589844 -0.992188 3.613281 -1.121094 3.644531 -1.285156 L 4.660156 -6.050781 L 5.101562 -6.050781 C 5.878906 -6.050781 6.125 -6.019531 6.125 -5.617188 C 6.125 -5.445312 6.082031 -5.21875 6.019531 -4.894531 L 6.621094 -4.894531 L 7.019531 -6.792969 Z M 1.691406 -6.792969 "/></g></g></g><g fill="#000000" fill-opacity="1"><g transform="translate(230.922599, 256.343304)"><g><path d="M 7.613281 -6.792969 L 1.917969 -6.792969 L 1.78125 -6.148438 C 2.199219 -6.148438 2.339844 -6.113281 2.339844 -5.886719 C 2.339844 -5.800781 2.320312 -5.671875 2.285156 -5.511719 L 1.378906 -1.285156 C 1.261719 -0.699219 1.195312 -0.648438 0.613281 -0.648438 L 0.472656 0 L 6.167969 0 L 6.558594 -1.84375 L 5.910156 -1.84375 C 5.695312 -0.796875 5.609375 -0.734375 4.519531 -0.734375 L 2.179688 -0.734375 L 2.675781 -3.03125 L 5.328125 -3.03125 L 5.480469 -3.765625 L 2.824219 -3.765625 L 3.3125 -6.0625 L 5.652344 -6.0625 C 6.429688 -6.0625 6.675781 -6.027344 6.675781 -5.628906 C 6.675781 -5.480469 6.644531 -5.253906 6.578125 -4.949219 L 7.226562 -4.949219 Z M 7.613281 -6.792969 "/></g></g></g><g fill="#000000" fill-opacity="1"><g transform="translate(242.882521, 256.343304)"><g><path d="M 1.875 -6.792969 L 1.738281 -6.148438 C 2.15625 -6.148438 2.308594 -6.113281 2.308594 -5.878906 C 2.308594 -5.792969 2.285156 -5.671875 2.253906 -5.511719 L 1.347656 -1.285156 C 1.230469 -0.699219 1.152344 -0.648438 0.570312 -0.648438 L 0.429688 0 L 6.125 0 L 6.523438 -1.898438 L 5.878906 -1.898438 C 5.652344 -0.808594 5.585938 -0.746094 4.496094 -0.746094 L 2.15625 -0.746094 L 3.171875 -5.511719 C 3.289062 -6.09375 3.355469 -6.148438 3.9375 -6.148438 L 4.078125 -6.792969 Z M 1.875 -6.792969 "/></g></g></g><g fill="#000000" fill-opacity="1"><g transform="translate(254.562132, 256.343304)"><g><path d="M 0.464844 0 L 2.664062 0 L 2.804688 -0.648438 C 2.382812 -0.648438 2.234375 -0.679688 2.234375 -0.917969 C 2.234375 -1.003906 2.253906 -1.121094 2.285156 -1.285156 L 3.191406 -5.511719 C 3.3125 -6.09375 3.386719 -6.148438 3.96875 -6.148438 L 4.109375 -6.792969 L 1.910156 -6.792969 L 1.769531 -6.148438 C 2.1875 -6.148438 2.328125 -6.113281 2.328125 -5.886719 C 2.328125 -5.800781 2.308594 -5.671875 2.277344 -5.511719 L 1.371094 -1.285156 C 1.25 -0.699219 1.1875 -0.648438 0.605469 -0.648438 Z M 0.464844 0 "/></g></g></g><g fill="#000000" fill-opacity="1"><g transform="translate(263.072049, 256.343304)"><g><path d="M 1.175781 -3.398438 C 1.078125 -2.964844 1.035156 -2.578125 1.035156 -2.222656 C 1.035156 -0.65625 1.953125 0.0976562 3.730469 0.0976562 C 5.175781 0.0976562 6.070312 -0.367188 6.339844 -0.582031 L 7.019531 -3.730469 L 4.445312 -3.730469 L 4.28125 -3 L 5.933594 -3 L 5.5 -0.949219 C 5.199219 -0.808594 4.660156 -0.636719 3.882812 -0.636719 C 2.621094 -0.636719 1.972656 -1.1875 1.972656 -2.394531 C 1.972656 -2.683594 2.015625 -3.019531 2.09375 -3.398438 C 2.492188 -5.296875 3.472656 -6.160156 4.984375 -6.160156 C 6.0625 -6.160156 6.644531 -5.855469 6.644531 -5.1875 C 6.644531 -5.132812 6.644531 -5.078125 6.632812 -5.015625 L 7.289062 -5.015625 L 7.558594 -6.277344 C 7.355469 -6.460938 6.546875 -6.890625 5.15625 -6.890625 C 3.03125 -6.890625 1.683594 -5.757812 1.175781 -3.398438 Z M 1.175781 -3.398438 "/></g></g></g><g fill="#000000" fill-opacity="1"><g transform="translate(275.118214, 256.343304)"><g><path d="M 7.613281 -6.792969 L 1.917969 -6.792969 L 1.78125 -6.148438 C 2.199219 -6.148438 2.339844 -6.113281 2.339844 -5.886719 C 2.339844 -5.800781 2.320312 -5.671875 2.285156 -5.511719 L 1.378906 -1.285156 C 1.261719 -0.699219 1.195312 -0.648438 0.613281 -0.648438 L 0.472656 0 L 6.167969 0 L 6.558594 -1.84375 L 5.910156 -1.84375 C 5.695312 -0.796875 5.609375 -0.734375 4.519531 -0.734375 L 2.179688 -0.734375 L 2.675781 -3.03125 L 5.328125 -3.03125 L 5.480469 -3.765625 L 2.824219 -3.765625 L 3.3125 -6.0625 L 5.652344 -6.0625 C 6.429688 -6.0625 6.675781 -6.027344 6.675781 -5.628906 C 6.675781 -5.480469 6.644531 -5.253906 6.578125 -4.949219 L 7.226562 -4.949219 Z M 7.613281 -6.792969 "/></g></g></g><g fill="#000000" fill-opacity="1"><g transform="translate(287.078136, 256.343304)"><g><path d="M 1.769531 -6.148438 C 2.058594 -6.148438 2.253906 -6.136719 2.394531 -6.09375 L 1.371094 -1.285156 C 1.25 -0.699219 1.1875 -0.648438 0.605469 -0.648438 L 0.464844 0 L 2.546875 0 L 2.683594 -0.648438 C 2.265625 -0.648438 2.125 -0.679688 2.125 -0.90625 C 2.125 -0.992188 2.144531 -1.121094 2.179688 -1.285156 L 3.042969 -5.316406 L 5.652344 0 L 6.523438 0 L 7.699219 -5.511719 C 7.820312 -6.09375 7.882812 -6.148438 8.464844 -6.148438 L 8.605469 -6.792969 L 6.523438 -6.792969 L 6.382812 -6.148438 C 6.804688 -6.148438 6.945312 -6.113281 6.945312 -5.886719 C 6.945312 -5.800781 6.925781 -5.671875 6.890625 -5.511719 L 6.039062 -1.53125 L 3.417969 -6.792969 L 1.910156 -6.792969 Z M 1.769531 -6.148438 "/></g></g></g><g fill="#000000" fill-opacity="1"><g transform="translate(299.900554, 256.343304)"><g><path d="M 1.691406 -6.792969 L 1.292969 -4.894531 L 1.898438 -4.894531 C 2.125 -5.984375 2.199219 -6.050781 3.289062 -6.050781 L 3.730469 -6.050781 L 2.71875 -1.285156 C 2.597656 -0.699219 2.535156 -0.648438 1.953125 -0.648438 L 1.8125 0 L 4.011719 0 L 4.152344 -0.648438 C 3.730469 -0.648438 3.589844 -0.679688 3.589844 -0.90625 C 3.589844 -0.992188 3.613281 -1.121094 3.644531 -1.285156 L 4.660156 -6.050781 L 5.101562 -6.050781 C 5.878906 -6.050781 6.125 -6.019531 6.125 -5.617188 C 6.125 -5.445312 6.082031 -5.21875 6.019531 -4.894531 L 6.621094 -4.894531 L 7.019531 -6.792969 Z M 1.691406 -6.792969 "/></g></g></g><g fill="#000000" fill-opacity="1"><g transform="translate(311.116564, 256.343304)"><g><path d="M 7.613281 -6.792969 L 1.917969 -6.792969 L 1.78125 -6.148438 C 2.199219 -6.148438 2.339844 -6.113281 2.339844 -5.886719 C 2.339844 -5.800781 2.320312 -5.671875 2.285156 -5.511719 L 1.378906 -1.285156 C 1.261719 -0.699219 1.195312 -0.648438 0.613281 -0.648438 L 0.472656 0 L 6.167969 0 L 6.558594 -1.84375 L 5.910156 -1.84375 C 5.695312 -0.796875 5.609375 -0.734375 4.519531 -0.734375 L 2.179688 -0.734375 L 2.675781 -3.03125 L 5.328125 -3.03125 L 5.480469 -3.765625 L 2.824219 -3.765625 L 3.3125 -6.0625 L 5.652344 -6.0625 C 6.429688 -6.0625 6.675781 -6.027344 6.675781 -5.628906 C 6.675781 -5.480469 6.644531 -5.253906 6.578125 -4.949219 L 7.226562 -4.949219 Z M 7.613281 -6.792969 "/></g></g></g><g fill="#000000" fill-opacity="1"><g transform="translate(323.076486, 256.343304)"><g><path d="M 0.453125 0 L 1.488281 0 L 1.703125 -1.035156 L 0.667969 -1.035156 Z M 0.453125 0 "/></g></g></g><g mask="url(#0b99873dcf)"><g transform="matrix(1, 0, 0, 1, 193, 165)"><g clip-path="url(#7513b4d5ad)"><g clip-path="url(#af1f9a6818)"><path fill="#a6a6a6" d="M 12.292969 11.285156 L 15.808594 14.800781 L 16.675781 13.933594 L 12.667969 9.921875 C 12.132812 10.023438 11.640625 10.285156 11.234375 10.691406 C 10.832031 11.09375 10.570312 11.585938 10.46875 12.121094 L 14.476562 16.132812 L 15.347656 15.261719 L 11.828125 11.746094 C 11.699219 11.617188 11.699219 11.414062 11.828125 11.285156 C 11.960938 11.152344 12.160156 11.152344 12.292969 11.285156 Z M 20.152344 9.34375 C 20.238281 9.429688 20.339844 9.460938 20.453125 9.429688 C 21.554688 9.15625 22.785156 9.445312 23.636719 10.300781 C 24.507812 11.167969 24.796875 12.382812 24.507812 13.484375 C 24.476562 13.597656 24.507812 13.714844 24.59375 13.785156 L 25.433594 14.625 C 25.5625 14.757812 25.765625 14.757812 25.894531 14.625 L 29.90625 10.617188 C 30.035156 10.488281 30.035156 10.285156 29.90625 10.15625 L 23.78125 4.03125 C 23.652344 3.902344 23.449219 3.902344 23.320312 4.03125 L 19.3125 8.054688 C 19.179688 8.1875 19.179688 8.390625 19.3125 8.519531 Z M 24.417969 8.257812 C 24.765625 7.910156 25.332031 7.910156 25.695312 8.257812 C 26.039062 8.605469 26.039062 9.171875 25.695312 9.53125 C 25.347656 9.878906 24.78125 9.878906 24.417969 9.53125 C 24.058594 9.183594 24.058594 8.605469 24.417969 8.257812 Z M 30.195312 9.878906 C 30.324219 10.011719 30.527344 10.011719 30.65625 9.878906 L 30.960938 9.574219 C 31.089844 9.445312 31.089844 9.242188 30.960938 9.113281 L 24.824219 2.976562 C 24.695312 2.847656 24.492188 2.847656 24.363281 2.976562 L 24.058594 3.28125 C 23.929688 3.410156 23.929688 3.613281 24.058594 3.742188 Z M 3.535156 9.574219 L 3.839844 9.878906 C 3.96875 10.011719 4.171875 10.011719 4.304688 9.878906 L 10.441406 3.742188 C 10.570312 3.613281 10.570312 3.410156 10.441406 3.28125 L 10.136719 2.976562 C 10.003906 2.847656 9.804688 2.847656 9.671875 2.976562 L 3.535156 9.128906 C 3.40625 9.242188 3.40625 9.445312 3.535156 9.574219 Z M 4.578125 10.632812 L 8.585938 14.640625 C 8.71875 14.769531 8.921875 14.769531 9.050781 14.640625 L 9.890625 13.800781 C 9.976562 13.714844 10.003906 13.613281 9.976562 13.496094 C 9.703125 12.398438 9.992188 11.183594 10.84375 10.3125 C 11.714844 9.445312 12.929688 9.15625 14.027344 9.445312 C 14.144531 9.472656 14.261719 9.445312 14.332031 9.359375 L 15.171875 8.519531 C 15.300781 8.390625 15.300781 8.1875 15.171875 8.054688 L 11.179688 4.03125 C 11.046875 3.902344 10.84375 3.902344 10.714844 4.03125 L 4.578125 10.167969 C 4.460938 10.300781 4.460938 10.5 4.578125 10.632812 Z M 8.804688 8.257812 C 9.152344 7.910156 9.714844 7.910156 10.078125 8.257812 C 10.425781 8.605469 10.425781 9.171875 10.078125 9.53125 C 9.730469 9.878906 9.152344 9.878906 8.804688 9.53125 C 8.457031 9.183594 8.457031 8.605469 8.804688 8.257812 Z M 25.867188 1.933594 C 25.738281 1.804688 25.535156 1.804688 25.402344 1.933594 L 25.101562 2.238281 C 24.96875 2.367188 24.96875 2.570312 25.101562 2.703125 L 31.234375 8.835938 C 31.367188 8.96875 31.570312 8.96875 31.699219 8.835938 L 32.003906 8.535156 C 32.132812 8.402344 32.132812 8.199219 32.003906 8.070312 Z M 31.121094 25.148438 L 31.164062 25.105469 C 31.292969 24.972656 31.292969 24.769531 31.164062 24.640625 L 25.5625 19.039062 C 25.433594 18.910156 25.230469 18.910156 25.101562 19.039062 L 25.054688 19.082031 L 24.765625 18.792969 C 24.738281 18.765625 24.679688 18.765625 24.652344 18.792969 L 24.1875 19.257812 C 24.160156 19.285156 24.160156 19.34375 24.1875 19.375 L 24.476562 19.664062 L 24.433594 19.707031 C 23.882812 20.257812 23 20.257812 22.453125 19.707031 L 20.003906 17.261719 L 19.136719 18.128906 L 21.726562 20.71875 C 21.859375 20.847656 21.859375 21.050781 21.726562 21.183594 C 21.597656 21.3125 21.394531 21.3125 21.265625 21.183594 L 18.6875 18.605469 L 17.820312 19.472656 L 20.265625 21.921875 C 20.816406 22.46875 20.816406 23.351562 20.265625 23.902344 L 20.222656 23.945312 L 19.933594 23.65625 C 19.90625 23.628906 19.847656 23.628906 19.816406 23.65625 L 19.355469 24.121094 C 19.324219 24.148438 19.324219 24.207031 19.355469 24.234375 L 19.644531 24.523438 L 19.601562 24.570312 C 19.46875 24.699219 19.46875 24.902344 19.601562 25.03125 L 25.203125 30.632812 C 25.332031 30.761719 25.535156 30.761719 25.664062 30.632812 L 25.707031 30.589844 L 25.910156 30.792969 C 25.9375 30.820312 25.996094 30.820312 26.027344 30.792969 L 26.488281 30.328125 C 26.519531 30.300781 26.519531 30.242188 26.488281 30.210938 L 26.285156 30.011719 L 26.386719 29.910156 C 26.691406 29.605469 27.054688 29.445312 27.488281 29.417969 C 28.109375 29.386719 28.734375 29.128906 29.210938 28.648438 C 29.6875 28.171875 29.949219 27.566406 29.976562 26.925781 C 29.992188 26.492188 30.164062 26.132812 30.46875 25.828125 L 30.570312 25.726562 L 30.773438 25.929688 C 30.800781 25.957031 30.859375 25.957031 30.890625 25.929688 L 31.351562 25.464844 C 31.382812 25.4375 31.382812 25.378906 31.351562 25.351562 Z M 27.066406 26.523438 C 26.128906 27.464844 24.621094 27.464844 23.683594 26.523438 C 22.742188 25.582031 22.742188 24.078125 23.683594 23.136719 C 24.621094 22.195312 26.128906 22.195312 27.066406 23.136719 C 28.007812 24.078125 28.007812 25.597656 27.066406 26.523438 Z M 8.339844 1.195312 L 7.601562 0.457031 C 7.5 0.355469 7.355469 0.34375 7.226562 0.398438 C 5.910156 1.066406 4.679688 1.933594 3.578125 3.035156 C 2.480469 4.132812 1.613281 5.363281 0.945312 6.679688 C 0.886719 6.8125 0.902344 6.957031 1.003906 7.058594 L 1.742188 7.796875 C 1.871094 7.925781 2.074219 7.925781 2.207031 7.796875 L 8.339844 1.660156 C 8.457031 1.527344 8.457031 1.328125 8.339844 1.195312 Z M 33.539062 6.679688 C 32.886719 5.363281 32.003906 4.132812 30.902344 3.035156 C 29.804688 1.933594 28.574219 1.066406 27.257812 0.398438 C 27.125 0.34375 26.980469 0.355469 26.878906 0.457031 L 26.140625 1.195312 C 26.011719 1.328125 26.011719 1.527344 26.140625 1.660156 L 32.277344 7.796875 C 32.410156 7.925781 32.609375 7.925781 32.742188 7.796875 L 33.480469 7.058594 C 33.582031 6.957031 33.59375 6.8125 33.539062 6.679688 Z M 9.382812 2.703125 C 9.511719 2.570312 9.511719 2.367188 9.382812 2.238281 L 9.078125 1.933594 C 8.949219 1.804688 8.746094 1.804688 8.617188 1.933594 L 2.480469 8.070312 C 2.351562 8.199219 2.351562 8.402344 2.480469 8.535156 L 2.785156 8.835938 C 2.914062 8.96875 3.117188 8.96875 3.246094 8.835938 Z M 14.679688 23.640625 C 14.652344 23.613281 14.59375 23.613281 14.5625 23.640625 L 14.273438 23.933594 L 14.230469 23.886719 C 13.679688 23.339844 13.679688 22.457031 14.230469 21.90625 L 24.027344 12.109375 C 23.929688 11.574219 23.667969 11.082031 23.261719 10.675781 C 22.855469 10.269531 22.363281 10.011719 21.828125 9.910156 L 12.03125 19.707031 C 11.480469 20.257812 10.597656 20.257812 10.050781 19.707031 L 10.003906 19.664062 L 10.296875 19.375 C 10.324219 19.34375 10.324219 19.285156 10.296875 19.257812 L 9.832031 18.792969 C 9.804688 18.765625 9.746094 18.765625 9.714844 18.792969 L 9.425781 19.082031 L 9.382812 19.039062 C 9.253906 18.910156 9.050781 18.910156 8.921875 19.039062 L 3.320312 24.640625 C 3.1875 24.769531 3.1875 24.972656 3.320312 25.105469 L 3.363281 25.148438 L 3.160156 25.351562 C 3.132812 25.378906 3.132812 25.4375 3.160156 25.464844 L 3.625 25.929688 C 3.652344 25.957031 3.710938 25.957031 3.738281 25.929688 L 3.941406 25.726562 L 4.042969 25.828125 C 4.347656 26.132812 4.507812 26.492188 4.535156 26.925781 C 4.5625 27.550781 4.824219 28.171875 5.300781 28.648438 C 5.78125 29.128906 6.386719 29.386719 7.023438 29.417969 C 7.457031 29.429688 7.820312 29.605469 8.125 29.910156 L 8.226562 30.011719 L 8.023438 30.210938 C 7.992188 30.242188 7.992188 30.300781 8.023438 30.328125 L 8.484375 30.792969 C 8.515625 30.820312 8.574219 30.820312 8.601562 30.792969 L 8.804688 30.589844 L 8.847656 30.632812 C 8.976562 30.761719 9.179688 30.761719 9.3125 30.632812 L 14.910156 25.03125 C 15.042969 24.902344 15.042969 24.699219 14.910156 24.570312 L 14.867188 24.523438 L 15.15625 24.234375 C 15.1875 24.207031 15.1875 24.148438 15.15625 24.121094 Z M 10.800781 26.523438 C 9.859375 27.464844 8.355469 27.464844 7.414062 26.523438 C 6.472656 25.582031 6.472656 24.078125 7.414062 23.136719 C 8.355469 22.195312 9.859375 22.195312 10.800781 23.136719 C 11.742188 24.078125 11.742188 25.597656 10.800781 26.523438 Z M 12.753906 21.195312 C 12.625 21.066406 12.625 20.863281 12.753906 20.734375 L 22.207031 11.285156 C 22.335938 11.152344 22.539062 11.152344 22.667969 11.285156 C 22.800781 11.414062 22.800781 11.617188 22.667969 11.746094 L 13.21875 21.195312 C 13.089844 21.3125 12.886719 21.3125 12.753906 21.195312 Z M 12.753906 21.195312 " fill-opacity="1" fill-rule="evenodd"/></g></g></g></g><g clip-path="url(#d3e299f076)"><path fill="#545454" d="M 275.480469 180.671875 C 273.074219 180.21875 270.695312 179.621094 268.351562 178.894531 C 266.011719 178.15625 263.699219 177.316406 261.410156 176.386719 C 259.125 175.457031 256.851562 174.460938 254.574219 173.425781 L 247.6875 170.273438 C 245.363281 169.21875 243 168.179688 240.5625 167.195312 C 239.949219 166.953125 239.34375 166.703125 238.71875 166.472656 L 237.789062 166.117188 L 236.847656 165.773438 C 236.222656 165.542969 235.582031 165.332031 234.949219 165.109375 C 234.628906 165 234.304688 164.898438 233.980469 164.792969 C 233.660156 164.6875 233.339844 164.582031 233.011719 164.484375 C 232.359375 164.285156 231.710938 164.082031 231.042969 163.902344 C 230.710938 163.8125 230.382812 163.714844 230.046875 163.628906 L 229.042969 163.378906 C 228.371094 163.210938 227.703125 163.035156 227.023438 162.898438 L 226.003906 162.679688 C 225.664062 162.609375 225.328125 162.53125 224.984375 162.472656 L 222.929688 162.105469 L 220.855469 161.796875 C 220.683594 161.769531 220.511719 161.742188 220.339844 161.722656 L 219.820312 161.660156 L 218.777344 161.539062 C 218.429688 161.5 218.085938 161.453125 217.738281 161.421875 L 216.691406 161.332031 C 213.910156 161.085938 211.113281 160.976562 208.332031 161 C 205.546875 161.03125 202.777344 161.167969 200.03125 161.414062 C 194.542969 161.910156 189.171875 162.835938 183.953125 164.039062 C 178.734375 165.257812 173.664062 166.753906 168.753906 168.476562 C 166.300781 169.335938 163.878906 170.242188 161.503906 171.210938 C 159.125 172.171875 156.785156 173.179688 154.484375 174.234375 C 159.410156 172.585938 164.371094 171.03125 169.425781 169.695312 C 174.464844 168.34375 179.589844 167.199219 184.765625 166.308594 C 187.351562 165.863281 189.960938 165.507812 192.570312 165.214844 C 193.871094 165.058594 195.179688 164.949219 196.488281 164.835938 L 198.453125 164.699219 C 199.105469 164.65625 199.761719 164.636719 200.414062 164.601562 C 203.03125 164.496094 205.644531 164.46875 208.246094 164.558594 L 210.191406 164.648438 C 210.835938 164.6875 211.480469 164.742188 212.125 164.785156 L 212.609375 164.820312 L 213.089844 164.867188 L 214.054688 164.960938 C 214.375 164.992188 214.695312 165.019531 215.015625 165.058594 L 215.96875 165.175781 L 216.921875 165.296875 C 217.242188 165.332031 217.554688 165.390625 217.871094 165.4375 L 219.289062 165.660156 C 219.445312 165.683594 219.601562 165.714844 219.757812 165.742188 L 221.628906 166.09375 L 223.472656 166.5 C 223.785156 166.5625 224.085938 166.644531 224.386719 166.71875 L 225.300781 166.949219 C 225.910156 167.089844 226.503906 167.269531 227.101562 167.441406 L 227.996094 167.695312 C 228.292969 167.785156 228.585938 167.878906 228.882812 167.972656 C 229.472656 168.152344 230.054688 168.359375 230.640625 168.554688 C 235.304688 170.167969 239.765625 172.230469 244.242188 174.398438 C 248.71875 176.566406 253.222656 178.851562 258.058594 180.914062 C 258.980469 181.304688 259.917969 181.691406 260.871094 182.0625 C 258.007812 182.285156 255.132812 182.449219 252.253906 182.570312 L 249.519531 182.671875 L 246.78125 182.738281 C 245.871094 182.765625 244.957031 182.765625 244.042969 182.777344 L 242.671875 182.792969 C 242.214844 182.796875 241.753906 182.792969 241.296875 182.792969 C 237.640625 182.808594 233.972656 182.730469 230.300781 182.621094 C 226.632812 182.515625 222.957031 182.34375 219.28125 182.140625 C 215.605469 181.9375 211.925781 181.703125 208.246094 181.429688 C 200.882812 180.902344 193.511719 180.265625 186.117188 179.644531 C 178.722656 179.019531 171.308594 178.398438 163.859375 177.894531 L 161.066406 177.707031 C 160.136719 177.644531 159.207031 177.585938 158.273438 177.53125 C 156.40625 177.421875 154.53125 177.328125 152.660156 177.242188 C 151.722656 177.199219 150.78125 177.164062 149.84375 177.128906 L 147.023438 177.039062 C 146.082031 177.023438 145.140625 177 144.199219 176.992188 L 142.78125 176.980469 C 142.3125 176.976562 141.839844 176.976562 141.367188 176.980469 C 140.425781 176.984375 139.480469 176.984375 138.535156 177.007812 L 137.121094 177.035156 C 136.648438 177.042969 136.175781 177.0625 135.703125 177.078125 L 134.289062 177.132812 L 132.875 177.207031 C 131.929688 177.25 130.988281 177.324219 130.046875 177.390625 C 126.28125 177.664062 122.539062 178.117188 118.855469 178.765625 C 115.175781 179.421875 111.566406 180.289062 108.105469 181.390625 C 104.640625 182.496094 101.316406 183.824219 98.246094 185.414062 C 104.882812 182.855469 112.039062 181.257812 119.292969 180.464844 C 126.558594 179.660156 133.921875 179.644531 141.25 179.976562 C 141.707031 179.992188 142.167969 180.019531 142.625 180.046875 L 144 180.125 C 144.917969 180.175781 145.832031 180.246094 146.75 180.304688 L 149.496094 180.507812 C 150.414062 180.585938 151.328125 180.65625 152.246094 180.738281 C 154.078125 180.902344 155.910156 181.078125 157.746094 181.261719 C 159.578125 181.441406 161.417969 181.632812 163.253906 181.824219 C 170.597656 182.609375 177.941406 183.449219 185.308594 184.273438 C 200.039062 185.910156 214.898438 187.445312 229.96875 188.027344 C 237.496094 188.324219 245.078125 188.363281 252.65625 188.050781 C 256.449219 187.882812 260.238281 187.652344 264.015625 187.292969 C 267.796875 186.9375 271.558594 186.476562 275.300781 185.917969 L 290.917969 183.570312 Z M 275.480469 180.671875 " fill-opacity="1" fill-rule="nonzero"/></g><g clip-path="url(#0760d68be5)"><path fill="#5499d8" d="M 234.039062 196.652344 C 239.859375 197.921875 245.761719 198.863281 251.695312 199.40625 C 259.136719 200.089844 266.714844 200.183594 274.109375 198.992188 C 277.707031 198.410156 281.269531 197.511719 284.640625 196.113281 C 287.40625 194.972656 292.636719 193.109375 293.136719 189.671875 C 293.3125 188.457031 293.359375 186.613281 291.828125 185.660156 C 289.855469 184.4375 287.207031 185.671875 285.359375 186.375 C 283.152344 187.214844 280.976562 188.105469 278.59375 188.757812 C 275.617188 189.570312 272.539062 190.25 269.425781 190.851562 C 265.921875 191.53125 262.355469 192.140625 258.75 192.597656 C 260.527344 192.890625 263.484375 193.289062 265.082031 193.488281 C 266.992188 193.726562 268.917969 193.9375 270.847656 194.105469 C 272.878906 194.28125 274.980469 194.410156 277.082031 194.480469 C 267.730469 196.359375 251.800781 198.003906 228.644531 195.34375 C 230.460938 195.8125 232.28125 196.265625 234.039062 196.652344 Z M 234.039062 196.652344 " fill-opacity="1" fill-rule="nonzero"/></g></svg>